<?xml version="1.0" encoding="UTF-8"?>
<svg xmlns="http://www.w3.org/2000/svg" width="1280" height="720" viewBox="0 0 1280 720">
  <rect x="0" y="0" width="1280" height="720" fill="#FFFFFF"/>
  <rect x="0" y="0" width="1280" height="10" fill="#0097BA"/>
  <text x="72" y="72" fill="#0097BA" font-family="MiSans, Microsoft YaHei, Arial, sans-serif" font-size="15" font-weight="700">{{SECTION_NAME}}</text>
  <text x="72" y="124" fill="#111111" font-family="MiSans, Microsoft YaHei, Arial, sans-serif" font-size="38" font-weight="700">{{PAGE_TITLE}}</text>
  <text x="72" y="162" fill="#111111" fill-opacity="0.68" font-family="MiSans, Microsoft YaHei, Arial, sans-serif" font-size="18">{{KEY_MESSAGE}}</text>
  <g id="huixin-logo" transform="translate(1016 22) scale(0.58)" data-logo-variant="light">
    <image x="0" y="0" width="268" height="63" preserveAspectRatio="xMinYMin meet" href="images/huixin_logo_light.png"/>
  </g>

  <rect x="446" y="250" width="388" height="190" rx="24" fill="#111111"/>
  <rect x="478" y="282" width="324" height="46" rx="12" fill="#0097BA"/>
  <text x="640" y="312" text-anchor="middle" fill="#FFFFFF" font-family="MiSans, Microsoft YaHei, Arial, sans-serif" font-size="22" font-weight="700">{{PLATFORM_NAME}}</text>
  <text x="640" y="368" text-anchor="middle" fill="#D0CECE" font-family="MiSans, Microsoft YaHei, Arial, sans-serif" font-size="17">{{PLATFORM_DESC}}</text>
  <rect x="540" y="396" width="200" height="32" rx="16" fill="#83C410"/>
  <text x="640" y="418" text-anchor="middle" fill="#111111" font-family="MiSans, Microsoft YaHei, Arial, sans-serif" font-size="14" font-weight="700">{{PLATFORM_TAG}}</text>

  <rect x="72" y="226" width="260" height="118" rx="18" fill="#FFFFFF" stroke="#D0CECE" stroke-width="2"/>
  <text x="104" y="270" fill="#0097BA" font-family="MiSans, Microsoft YaHei, Arial, sans-serif" font-size="21" font-weight="700">{{SCENE_LAYER}}</text>
  <text x="104" y="306" fill="#111111" fill-opacity="0.72" font-family="MiSans, Microsoft YaHei, Arial, sans-serif" font-size="15">{{SCENE_DESC}}</text>
  <line x1="332" y1="285" x2="446" y2="330" stroke="#D0CECE" stroke-width="3"/>

  <rect x="72" y="412" width="260" height="118" rx="18" fill="#FFFFFF" stroke="#0097BA" stroke-width="2"/>
  <text x="104" y="456" fill="#0097BA" font-family="MiSans, Microsoft YaHei, Arial, sans-serif" font-size="21" font-weight="700">{{DATA_LAYER}}</text>
  <text x="104" y="492" fill="#111111" fill-opacity="0.72" font-family="MiSans, Microsoft YaHei, Arial, sans-serif" font-size="15">{{DATA_DESC}}</text>
  <line x1="332" y1="470" x2="446" y2="372" stroke="#0097BA" stroke-width="3"/>

  <rect x="948" y="226" width="260" height="118" rx="18" fill="#FFFFFF" stroke="#83C410" stroke-width="2"/>
  <text x="980" y="270" fill="#111111" font-family="MiSans, Microsoft YaHei, Arial, sans-serif" font-size="21" font-weight="700">{{AI_LAYER}}</text>
  <text x="980" y="306" fill="#111111" fill-opacity="0.72" font-family="MiSans, Microsoft YaHei, Arial, sans-serif" font-size="15">{{AI_DESC}}</text>
  <line x1="948" y1="285" x2="834" y2="330" stroke="#83C410" stroke-width="3"/>

  <rect x="948" y="412" width="260" height="118" rx="18" fill="#FFFFFF" stroke="#D0CECE" stroke-width="2"/>
  <text x="980" y="456" fill="#0097BA" font-family="MiSans, Microsoft YaHei, Arial, sans-serif" font-size="21" font-weight="700">{{VALUE_LAYER}}</text>
  <text x="980" y="492" fill="#111111" fill-opacity="0.72" font-family="MiSans, Microsoft YaHei, Arial, sans-serif" font-size="15">{{VALUE_DESC}}</text>
  <line x1="948" y1="470" x2="834" y2="372" stroke="#D0CECE" stroke-width="3"/>

  <rect x="72" y="584" width="1136" height="42" rx="12" fill="#0097BA" fill-opacity="0.10"/>
  <text x="104" y="611" fill="#0097BA" font-family="MiSans, Microsoft YaHei, Arial, sans-serif" font-size="17" font-weight="700">{{SOLUTION_SUMMARY}}</text>
  <line x1="72" y1="652" x2="1208" y2="652" stroke="#D0CECE" stroke-width="1.5"/>
  <text x="72" y="686" fill="#111111" fill-opacity="0.6" font-family="MiSans, Microsoft YaHei, Arial, sans-serif" font-size="12">Source: {{SOURCE}}</text>
  <text x="1208" y="686" text-anchor="end" fill="#111111" fill-opacity="0.6" font-family="MiSans, Microsoft YaHei, Arial, sans-serif" font-size="13">{{PAGE_NUM}}</text>
</svg>
