<svg xmlns="http://www.w3.org/2000/svg" width="1280" height="720" viewBox="0 0 1280 720">
  <defs>
    <marker id="arrowBlue" viewBox="0 0 10 10" refX="9" refY="5" markerWidth="7" markerHeight="7" orient="auto-start-reverse">
      <path d="M0 0 L10 5 L0 10 Z" fill="#4295B6"/>
    </marker>
  </defs>
  <rect width="1280" height="720" fill="#FFFFFF"/>
  <rect x="0" y="0" width="1280" height="10" fill="#4295B6"/>
  <rect x="0" y="10" width="320" height="5" fill="#B0D776"/>
  <image href="images/huixin_logo_light.png" x="1036" y="30" width="170" height="40" preserveAspectRatio="xMidYMid meet"/>
  <text x="72" y="70" font-family="Microsoft YaHei, Arial, sans-serif" font-size="15" font-weight="700" fill="#4295B6">01 / TECHNICAL ARCHITECTURE</text>
  <text x="72" y="124" font-family="Microsoft YaHei, Arial, sans-serif" font-size="38" font-weight="700" fill="#0B2F3A">技术架构：稳定、可扩展、可运维</text>
  <text x="72" y="160" font-family="Microsoft YaHei, Arial, sans-serif" font-size="18" font-weight="700" fill="#4295B6">以统一技术底座承载多端接入、微服务、数据智能与持续交付能力。</text>

  <rect x="72" y="196" width="914" height="420" rx="14" fill="#F3F7FA" stroke="#D2D3D4"/>
  <g font-family="Microsoft YaHei, Arial, sans-serif" font-size="14" font-weight="700">
    <rect x="92" y="222" width="112" height="44" rx="10" fill="#4295B6"/><text x="148" y="250" text-anchor="middle" fill="#FFFFFF">用户接入</text>
    <rect x="222" y="224" width="142" height="40" rx="8" fill="#FFFFFF" stroke="#D2D3D4"/><text x="293" y="249" text-anchor="middle" fill="#0B2F3A">Web 工作台</text>
    <rect x="382" y="224" width="142" height="40" rx="8" fill="#FFFFFF" stroke="#D2D3D4"/><text x="453" y="249" text-anchor="middle" fill="#0B2F3A">移动端</text>
    <rect x="542" y="224" width="142" height="40" rx="8" fill="#FFFFFF" stroke="#D2D3D4"/><text x="613" y="249" text-anchor="middle" fill="#0B2F3A">PDA / 工位屏</text>
    <rect x="702" y="224" width="142" height="40" rx="8" fill="#FFFFFF" stroke="#D2D3D4"/><text x="773" y="249" text-anchor="middle" fill="#0B2F3A">设备看板</text>

    <rect x="92" y="282" width="112" height="44" rx="10" fill="#4295B6" fill-opacity="0.88"/><text x="148" y="310" text-anchor="middle" fill="#FFFFFF">接入网关</text>
    <rect x="222" y="284" width="142" height="40" rx="8" fill="#FFFFFF" stroke="#D2D3D4"/><text x="293" y="309" text-anchor="middle" fill="#0B2F3A">统一认证</text>
    <rect x="382" y="284" width="142" height="40" rx="8" fill="#FFFFFF" stroke="#D2D3D4"/><text x="453" y="309" text-anchor="middle" fill="#0B2F3A">API 网关</text>
    <rect x="542" y="284" width="142" height="40" rx="8" fill="#FFFFFF" stroke="#D2D3D4"/><text x="613" y="309" text-anchor="middle" fill="#0B2F3A">负载均衡</text>
    <rect x="702" y="284" width="142" height="40" rx="8" fill="#FFFFFF" stroke="#D2D3D4"/><text x="773" y="309" text-anchor="middle" fill="#0B2F3A">安全访问</text>

    <rect x="92" y="342" width="112" height="44" rx="10" fill="#4295B6" fill-opacity="0.76"/><text x="148" y="370" text-anchor="middle" fill="#FFFFFF">服务治理</text>
    <rect x="222" y="344" width="142" height="40" rx="8" fill="#FFFFFF" stroke="#D2D3D4"/><text x="293" y="369" text-anchor="middle" fill="#0B2F3A">注册中心</text>
    <rect x="382" y="344" width="142" height="40" rx="8" fill="#FFFFFF" stroke="#D2D3D4"/><text x="453" y="369" text-anchor="middle" fill="#0B2F3A">配置中心</text>
    <rect x="542" y="344" width="142" height="40" rx="8" fill="#FFFFFF" stroke="#D2D3D4"/><text x="613" y="369" text-anchor="middle" fill="#0B2F3A">链路追踪</text>
    <rect x="702" y="344" width="142" height="40" rx="8" fill="#FFFFFF" stroke="#D2D3D4"/><text x="773" y="369" text-anchor="middle" fill="#0B2F3A">熔断限流</text>

    <rect x="92" y="402" width="112" height="44" rx="10" fill="#B0D776"/><text x="148" y="430" text-anchor="middle" fill="#0B2F3A">业务服务</text>
    <rect x="222" y="404" width="118" height="40" rx="8" fill="#FFFFFF" stroke="#B0D776"/><text x="281" y="429" text-anchor="middle" fill="#0B2F3A">计划排产</text>
    <rect x="354" y="404" width="118" height="40" rx="8" fill="#FFFFFF" stroke="#B0D776"/><text x="413" y="429" text-anchor="middle" fill="#0B2F3A">生产执行</text>
    <rect x="486" y="404" width="118" height="40" rx="8" fill="#FFFFFF" stroke="#B0D776"/><text x="545" y="429" text-anchor="middle" fill="#0B2F3A">质量追溯</text>
    <rect x="618" y="404" width="118" height="40" rx="8" fill="#FFFFFF" stroke="#B0D776"/><text x="677" y="429" text-anchor="middle" fill="#0B2F3A">仓储物流</text>
    <rect x="750" y="404" width="118" height="40" rx="8" fill="#FFFFFF" stroke="#B0D776"/><text x="809" y="429" text-anchor="middle" fill="#0B2F3A">设备运维</text>

    <rect x="92" y="462" width="112" height="44" rx="10" fill="#4295B6" fill-opacity="0.64"/><text x="148" y="490" text-anchor="middle" fill="#FFFFFF">数据智能</text>
    <rect x="222" y="464" width="154" height="40" rx="8" fill="#FFFFFF" stroke="#D2D3D4"/><text x="299" y="489" text-anchor="middle" fill="#0B2F3A">主数据模型</text>
    <rect x="396" y="464" width="154" height="40" rx="8" fill="#FFFFFF" stroke="#D2D3D4"/><text x="473" y="489" text-anchor="middle" fill="#0B2F3A">事件流</text>
    <rect x="570" y="464" width="154" height="40" rx="8" fill="#FFFFFF" stroke="#D2D3D4"/><text x="647" y="489" text-anchor="middle" fill="#0B2F3A">AI 分析</text>
    <rect x="744" y="464" width="154" height="40" rx="8" fill="#FFFFFF" stroke="#D2D3D4"/><text x="821" y="489" text-anchor="middle" fill="#0B2F3A">指标体系</text>

    <rect x="92" y="522" width="112" height="44" rx="10" fill="#0B2F3A"/><text x="148" y="550" text-anchor="middle" fill="#FFFFFF">基础设施</text>
    <rect x="222" y="524" width="154" height="40" rx="8" fill="#0B2F3A" fill-opacity="0.92"/><text x="299" y="549" text-anchor="middle" fill="#FFFFFF">容器平台</text>
    <rect x="396" y="524" width="154" height="40" rx="8" fill="#0B2F3A" fill-opacity="0.86"/><text x="473" y="549" text-anchor="middle" fill="#FFFFFF">消息中间件</text>
    <rect x="570" y="524" width="154" height="40" rx="8" fill="#0B2F3A" fill-opacity="0.80"/><text x="647" y="549" text-anchor="middle" fill="#FFFFFF">数据库集群</text>
    <rect x="744" y="524" width="154" height="40" rx="8" fill="#0B2F3A" fill-opacity="0.74"/><text x="821" y="549" text-anchor="middle" fill="#FFFFFF">监控告警</text>
  </g>
  <g stroke="#4295B6" stroke-width="1.8" marker-end="url(#arrowBlue)" fill="none">
    <path d="M902 244 L940 244 L940 304 L902 304"/>
    <path d="M902 364 L940 364 L940 424 L902 424"/>
    <path d="M902 484 L940 484 L940 544 L902 544"/>
  </g>
  <rect x="1014" y="214" width="194" height="384" rx="14" fill="#FFFFFF" stroke="#D2D3D4"/>
  <rect x="1034" y="236" width="154" height="42" rx="8" fill="#0B2F3A"/>
  <text x="1111" y="263" font-family="Microsoft YaHei, Arial, sans-serif" font-size="16" font-weight="700" fill="#FFFFFF" text-anchor="middle">交付与运维能力</text>
  <g font-family="Microsoft YaHei, Arial, sans-serif" font-size="14" fill="#4B5563">
    <text x="1046" y="318">✓ 自动构建部署</text>
    <text x="1046" y="362">✓ 多环境发布</text>
    <text x="1046" y="406">✓ 可观测监控</text>
    <text x="1046" y="450">✓ 安全审计</text>
    <text x="1046" y="494">✓ 弹性扩展</text>
  </g>
  <polygon points="1060,552 1105,552 1124,586 1079,586" fill="#4295B6"/>
  <polygon points="1115,552 1144,552 1163,586 1134,586" fill="#B0D776"/>
  <polygon points="1160,552 1178,552 1197,586 1179,586" fill="#D2D3D4"/>
  <text x="72" y="686" fill="#4B5563" font-family="Microsoft YaHei, Arial, sans-serif" font-size="12">Source: 慧新产品解决方案模板样张</text>
  <text x="1208" y="686" text-anchor="end" fill="#4B5563" font-family="Microsoft YaHei, Arial, sans-serif" font-size="13">01</text>
</svg>
