<svg xmlns="http://www.w3.org/2000/svg" width="1280" height="720" viewBox="0 0 1280 720">
  <rect width="1280" height="720" fill="#FFFFFF"/>
  <rect x="0" y="0" width="1280" height="10" fill="#4295B6"/>
  <rect x="0" y="10" width="320" height="5" fill="#B0D776"/>
  <image href="images/huixin_logo_light.png" x="1036" y="30" width="170" height="40" preserveAspectRatio="xMidYMid meet"/>
  <text x="72" y="70" font-family="Microsoft YaHei, Arial, sans-serif" font-size="15" font-weight="700" fill="#4295B6">06 / DATA ARCHITECTURE</text>
  <text x="72" y="124" font-family="Microsoft YaHei, Arial, sans-serif" font-size="38" font-weight="700" fill="#0B2F3A">数据架构：标准、质量、安全与服务化治理</text>
  <text x="72" y="160" font-family="Microsoft YaHei, Arial, sans-serif" font-size="18" font-weight="700" fill="#4295B6">从数据范围到管理流程、平台工具和服务门户，形成可持续的数据管理体系。</text>
  <rect x="72" y="198" width="1136" height="420" rx="14" fill="#F3F7FA" stroke="#D2D3D4"/>
  <g font-family="Microsoft YaHei, Arial, sans-serif" font-weight="700" text-anchor="middle">
    <rect x="104" y="226" width="306" height="90" rx="12" fill="#FFFFFF" stroke="#4295B6"/>
    <text x="257" y="258" font-size="20" fill="#4295B6">数据标准</text>
    <rect x="128" y="276" width="76" height="26" rx="6" fill="#D2D3D4"/><text x="166" y="294" font-size="13" fill="#0B2F3A">编码</text>
    <rect x="218" y="276" width="76" height="26" rx="6" fill="#D2D3D4"/><text x="256" y="294" font-size="13" fill="#0B2F3A">属性</text>
    <rect x="308" y="276" width="76" height="26" rx="6" fill="#D2D3D4"/><text x="346" y="294" font-size="13" fill="#0B2F3A">口径</text>
    <rect x="486" y="226" width="306" height="90" rx="12" fill="#FFFFFF" stroke="#B0D776"/>
    <text x="639" y="258" font-size="20" fill="#4295B6">数据质量</text>
    <rect x="510" y="276" width="76" height="26" rx="6" fill="#D2D3D4"/><text x="548" y="294" font-size="13" fill="#0B2F3A">事前</text>
    <rect x="600" y="276" width="76" height="26" rx="6" fill="#D2D3D4"/><text x="638" y="294" font-size="13" fill="#0B2F3A">事中</text>
    <rect x="690" y="276" width="76" height="26" rx="6" fill="#D2D3D4"/><text x="728" y="294" font-size="13" fill="#0B2F3A">事后</text>
    <rect x="868" y="226" width="306" height="90" rx="12" fill="#FFFFFF" stroke="#4295B6"/>
    <text x="1021" y="258" font-size="20" fill="#4295B6">数据安全</text>
    <rect x="898" y="276" width="96" height="26" rx="6" fill="#D2D3D4"/><text x="946" y="294" font-size="13" fill="#0B2F3A">分级分类</text>
    <rect x="1010" y="276" width="132" height="26" rx="6" fill="#D2D3D4"/><text x="1076" y="294" font-size="13" fill="#0B2F3A">权限和审计</text>
  </g>
  <g font-family="Microsoft YaHei, Arial, sans-serif" font-weight="700" text-anchor="middle">
    <rect x="104" y="346" width="1070" height="48" rx="10" fill="#FFFFFF" stroke="#D2D3D4"/>
    <rect x="104" y="346" width="110" height="48" rx="10" fill="#4295B6"/><text x="159" y="376" font-size="16" fill="#FFFFFF">管理组织</text>
    <rect x="254" y="356" width="152" height="28" rx="7" fill="#4295B6" fill-opacity="0.14" stroke="#4295B6"/><text x="330" y="376" font-size="14" fill="#0B2F3A">数据责任人</text>
    <rect x="438" y="356" width="152" height="28" rx="7" fill="#4295B6" fill-opacity="0.14" stroke="#4295B6"/><text x="514" y="376" font-size="14" fill="#0B2F3A">数据委员会</text>
    <rect x="622" y="356" width="152" height="28" rx="7" fill="#4295B6" fill-opacity="0.14" stroke="#4295B6"/><text x="698" y="376" font-size="14" fill="#0B2F3A">业务Owner</text>
    <rect x="806" y="356" width="152" height="28" rx="7" fill="#4295B6" fill-opacity="0.14" stroke="#4295B6"/><text x="882" y="376" font-size="14" fill="#0B2F3A">平台管理员</text>

    <rect x="104" y="410" width="1070" height="48" rx="10" fill="#FFFFFF" stroke="#D2D3D4"/>
    <rect x="104" y="410" width="110" height="48" rx="10" fill="#B0D776"/><text x="159" y="440" font-size="16" fill="#0B2F3A">管理流程</text>
    <rect x="254" y="420" width="152" height="28" rx="7" fill="#B0D776" fill-opacity="0.38" stroke="#B0D776"/><text x="330" y="440" font-size="14" fill="#0B2F3A">新建申请</text>
    <rect x="438" y="420" width="152" height="28" rx="7" fill="#B0D776" fill-opacity="0.38" stroke="#B0D776"/><text x="514" y="440" font-size="14" fill="#0B2F3A">变更审批</text>
    <rect x="622" y="420" width="152" height="28" rx="7" fill="#B0D776" fill-opacity="0.38" stroke="#B0D776"/><text x="698" y="440" font-size="14" fill="#0B2F3A">质量稽核</text>
    <rect x="806" y="420" width="152" height="28" rx="7" fill="#B0D776" fill-opacity="0.38" stroke="#B0D776"/><text x="882" y="440" font-size="14" fill="#0B2F3A">生命周期</text>

    <rect x="104" y="474" width="1070" height="48" rx="10" fill="#FFFFFF" stroke="#D2D3D4"/>
    <rect x="104" y="474" width="110" height="48" rx="10" fill="#0B2F3A"/><text x="159" y="504" font-size="16" fill="#FFFFFF">平台工具</text>
    <rect x="254" y="484" width="190" height="28" rx="7" fill="#0B2F3A" fill-opacity="0.12" stroke="#0B2F3A"/><text x="349" y="504" font-size="14" fill="#0B2F3A">主数据管理平台</text>
    <rect x="486" y="484" width="190" height="28" rx="7" fill="#0B2F3A" fill-opacity="0.12" stroke="#0B2F3A"/><text x="581" y="504" font-size="14" fill="#0B2F3A">质量规则引擎</text>
    <rect x="718" y="484" width="190" height="28" rx="7" fill="#0B2F3A" fill-opacity="0.12" stroke="#0B2F3A"/><text x="813" y="504" font-size="14" fill="#0B2F3A">数据服务目录</text>
    <rect x="950" y="484" width="152" height="28" rx="7" fill="#0B2F3A" fill-opacity="0.12" stroke="#0B2F3A"/><text x="1026" y="504" font-size="14" fill="#0B2F3A">接口监控</text>

    <rect x="104" y="538" width="1070" height="48" rx="10" fill="#FFFFFF" stroke="#D2D3D4"/>
    <rect x="104" y="538" width="110" height="48" rx="10" fill="#4295B6"/><text x="159" y="568" font-size="16" fill="#FFFFFF">数据范围</text>
    <rect x="242" y="548" width="86" height="28" rx="7" fill="#FFFFFF" stroke="#B0D776"/><text x="285" y="568" font-size="14" fill="#0B2F3A">客户</text>
    <rect x="348" y="548" width="86" height="28" rx="7" fill="#FFFFFF" stroke="#B0D776"/><text x="391" y="568" font-size="14" fill="#0B2F3A">物料</text>
    <rect x="454" y="548" width="86" height="28" rx="7" fill="#FFFFFF" stroke="#B0D776"/><text x="497" y="568" font-size="14" fill="#0B2F3A">产品</text>
    <rect x="560" y="548" width="86" height="28" rx="7" fill="#FFFFFF" stroke="#B0D776"/><text x="603" y="568" font-size="14" fill="#0B2F3A">设备</text>
    <rect x="666" y="548" width="86" height="28" rx="7" fill="#FFFFFF" stroke="#B0D776"/><text x="709" y="568" font-size="14" fill="#0B2F3A">人员</text>
    <rect x="772" y="548" width="86" height="28" rx="7" fill="#FFFFFF" stroke="#B0D776"/><text x="815" y="568" font-size="14" fill="#0B2F3A">组织</text>
    <rect x="878" y="548" width="86" height="28" rx="7" fill="#FFFFFF" stroke="#B0D776"/><text x="921" y="568" font-size="14" fill="#0B2F3A">BOM</text>
    <rect x="984" y="548" width="86" height="28" rx="7" fill="#FFFFFF" stroke="#B0D776"/><text x="1027" y="568" font-size="14" fill="#0B2F3A">指标</text>
  </g>
  <text x="72" y="686" fill="#4B5563" font-family="Microsoft YaHei, Arial, sans-serif" font-size="12">Source: 慧新产品解决方案模板样张</text>
  <text x="1208" y="686" text-anchor="end" fill="#4B5563" font-family="Microsoft YaHei, Arial, sans-serif" font-size="13">06</text>
</svg>
