<svg xmlns="http://www.w3.org/2000/svg" width="1280" height="720" viewBox="0 0 1280 720">
  <defs>
    <marker id="arrow" viewBox="0 0 10 10" refX="9" refY="5" markerWidth="7" markerHeight="7" orient="auto-start-reverse">
      <path d="M0 0 L10 5 L0 10 Z" fill="#4295B6"/>
    </marker>
  </defs>
  <rect width="1280" height="720" fill="#FFFFFF"/>
  <rect x="0" y="0" width="1280" height="10" fill="#4295B6"/>
  <rect x="0" y="10" width="320" height="5" fill="#B0D776"/>
  <image href="images/huixin_logo_light.png" x="1036" y="30" width="170" height="40" preserveAspectRatio="xMidYMid meet"/>
  <text x="72" y="70" font-family="Microsoft YaHei, Arial, sans-serif" font-size="15" font-weight="700" fill="#4295B6">03 / BUSINESS PROCESS</text>
  <text x="72" y="124" font-family="Microsoft YaHei, Arial, sans-serif" font-size="38" font-weight="700" fill="#0B2F3A">业务流程：从计划到执行的跨角色协同</text>
  <text x="72" y="160" font-family="Microsoft YaHei, Arial, sans-serif" font-size="18" font-weight="700" fill="#4295B6">用泳道呈现岗位分工、系统触发、现场反馈和异常闭环。</text>
  <rect x="72" y="198" width="1136" height="412" rx="14" fill="#F3F7FA" stroke="#D2D3D4"/>
  <g font-family="Microsoft YaHei, Arial, sans-serif" font-weight="700" text-anchor="middle">
    <rect x="100" y="226" width="250" height="342" rx="12" fill="#FFFFFF" stroke="#D2D3D4"/>
    <rect x="100" y="226" width="250" height="44" rx="12" fill="#4295B6"/><text x="225" y="255" font-size="18" fill="#FFFFFF">计划与调度</text>
    <rect x="374" y="226" width="250" height="342" rx="12" fill="#FFFFFF" stroke="#D2D3D4"/>
    <rect x="374" y="226" width="250" height="44" rx="12" fill="#4295B6" fill-opacity="0.86"/><text x="499" y="255" font-size="18" fill="#FFFFFF">现场执行</text>
    <rect x="648" y="226" width="250" height="342" rx="12" fill="#FFFFFF" stroke="#D2D3D4"/>
    <rect x="648" y="226" width="250" height="44" rx="12" fill="#B0D776"/><text x="773" y="255" font-size="18" fill="#0B2F3A">质量与异常</text>
    <rect x="922" y="226" width="250" height="342" rx="12" fill="#FFFFFF" stroke="#D2D3D4"/>
    <rect x="922" y="226" width="250" height="44" rx="12" fill="#0B2F3A"/><text x="1047" y="255" font-size="18" fill="#FFFFFF">交付与复盘</text>
  </g>
  <g font-family="Microsoft YaHei, Arial, sans-serif" font-size="15" font-weight="700" text-anchor="middle">
    <rect x="142" y="312" width="166" height="46" rx="10" fill="#4295B6"/><text x="225" y="341" fill="#FFFFFF">生成生产计划</text>
    <rect x="142" y="420" width="166" height="46" rx="10" fill="#FFFFFF" stroke="#4295B6"/><text x="225" y="449" fill="#0B2F3A">下发工单任务</text>
    <rect x="416" y="292" width="166" height="46" rx="10" fill="#FFFFFF" stroke="#D2D3D4"/><text x="499" y="321" fill="#0B2F3A">领取任务</text>
    <rect x="416" y="392" width="166" height="46" rx="10" fill="#4295B6" fill-opacity="0.14" stroke="#4295B6"/><text x="499" y="421" fill="#0B2F3A">采集过程数据</text>
    <rect x="416" y="492" width="166" height="46" rx="10" fill="#FFFFFF" stroke="#D2D3D4"/><text x="499" y="521" fill="#0B2F3A">报工反馈</text>
    <rect x="690" y="332" width="166" height="46" rx="10" fill="#B0D776"/><text x="773" y="361" fill="#0B2F3A">质量判定</text>
    <rect x="690" y="452" width="166" height="46" rx="10" fill="#FFFFFF" stroke="#B0D776"/><text x="773" y="481" fill="#0B2F3A">异常处理</text>
    <rect x="964" y="332" width="166" height="46" rx="10" fill="#FFFFFF" stroke="#D2D3D4"/><text x="1047" y="361" fill="#0B2F3A">入库交付</text>
    <rect x="964" y="452" width="166" height="46" rx="10" fill="#0B2F3A"/><text x="1047" y="481" fill="#FFFFFF">绩效复盘</text>
  </g>
  <g fill="none" stroke="#4295B6" stroke-width="2" marker-end="url(#arrow)">
    <path d="M225 358 L225 420"/>
    <path d="M308 443 C350 443 374 315 416 315"/>
    <path d="M499 338 L499 392"/>
    <path d="M499 438 L499 492"/>
    <path d="M582 515 C622 515 648 475 690 475"/>
    <path d="M856 355 C896 355 922 355 964 355"/>
    <path d="M856 475 C900 475 920 475 964 475"/>
    <path d="M1047 378 L1047 452"/>
    <path d="M690 452 C642 452 632 415 582 415"/>
  </g>
  <rect x="142" y="276" width="100" height="24" rx="12" fill="#D2D3D4"/>
  <text x="192" y="293" font-family="Microsoft YaHei, Arial, sans-serif" font-size="12" fill="#0B2F3A" text-anchor="middle">系统触发</text>
  <rect x="690" y="404" width="112" height="24" rx="12" fill="#D2D3D4"/>
  <text x="746" y="421" font-family="Microsoft YaHei, Arial, sans-serif" font-size="12" fill="#0B2F3A" text-anchor="middle">闭环回退</text>
  <text x="72" y="686" fill="#4B5563" font-family="Microsoft YaHei, Arial, sans-serif" font-size="12">Source: 慧新产品解决方案模板样张</text>
  <text x="1208" y="686" text-anchor="end" fill="#4B5563" font-family="Microsoft YaHei, Arial, sans-serif" font-size="13">03</text>
</svg>
