<?xml version="1.0" encoding="UTF-8"?>
<svg xmlns="http://www.w3.org/2000/svg" width="1280" height="720" viewBox="0 0 1280 720">
  <rect x="0" y="0" width="1280" height="720" fill="#FFFFFF"/>
  <rect x="0" y="0" width="1280" height="10" fill="#4295B6"/>
  <text x="72" y="72" fill="#4295B6" font-family="Microsoft YaHei" font-size="15" font-weight="700">{{SECTION_NAME}}</text>
  <text x="72" y="124" fill="#0B2F3A" font-family="Microsoft YaHei" font-size="38" font-weight="700">{{CASE_TITLE}}</text>
  <text x="72" y="162" fill="#4B5563" font-family="Microsoft YaHei" font-size="18">{{CASE_SUBTITLE}}</text>
  <g id="case-triptych">
    <rect x="72" y="210" width="344" height="418" rx="18" fill="#F3F7FA" stroke="#4295B6"/>
    <rect x="108" y="240" width="228" height="46" rx="14" fill="#4295B6"/>
    <text x="222" y="271" text-anchor="middle" fill="#FFFFFF" font-family="Microsoft YaHei" font-size="22" font-weight="700">客户业务痛点</text>
    <text x="108" y="336" fill="#0B2F3A" font-family="Microsoft YaHei" font-size="20" font-weight="700">{{PAIN_TITLE}}</text>
    <text x="108" y="376" fill="#4B5563" font-family="Microsoft YaHei" font-size="15"><tspan x="108" dy="0">{{PAIN_1}}</tspan><tspan x="108" dy="30">{{PAIN_2}}</tspan><tspan x="108" dy="30">{{PAIN_3}}</tspan></text>
    <rect x="134" y="500" width="206" height="88" rx="8" fill="#FFFFFF" stroke="#D2D3D4" stroke-dasharray="8,6"/>
    <text x="237" y="552" text-anchor="middle" fill="#4B5563" font-family="Microsoft YaHei" font-size="13">客户现场/产品图占位</text>
    <rect x="468" y="210" width="344" height="418" rx="18" fill="#F3F7FA" stroke="#B0D776"/>
    <rect x="504" y="240" width="228" height="46" rx="14" fill="#B0D776"/>
    <text x="618" y="271" text-anchor="middle" fill="#0B2F3A" font-family="Microsoft YaHei" font-size="22" font-weight="700">实施方案</text>
    <text x="504" y="336" fill="#0B2F3A" font-family="Microsoft YaHei" font-size="20" font-weight="700">{{SOLUTION_TITLE}}</text>
    <text x="504" y="376" fill="#4B5563" font-family="Microsoft YaHei" font-size="15"><tspan x="504" dy="0">{{SOLUTION_1}}</tspan><tspan x="504" dy="30">{{SOLUTION_2}}</tspan><tspan x="504" dy="30">{{SOLUTION_3}}</tspan></text>
    <rect x="506" y="500" width="268" height="88" rx="8" fill="#FFFFFF" stroke="#D2D3D4" stroke-dasharray="8,6"/>
    <text x="640" y="552" text-anchor="middle" fill="#4B5563" font-family="Microsoft YaHei" font-size="13">系统截图 / 架构图占位</text>
    <rect x="864" y="210" width="344" height="418" rx="18" fill="#0B2F3A"/>
    <rect x="900" y="240" width="228" height="46" rx="14" fill="#4295B6"/>
    <text x="1014" y="271" text-anchor="middle" fill="#FFFFFF" font-family="Microsoft YaHei" font-size="22" font-weight="700">价值收益</text>
    <text x="900" y="336" fill="#FFFFFF" font-family="Microsoft YaHei" font-size="20" font-weight="700">{{VALUE_TITLE}}</text>
    <text x="900" y="390" fill="#B0D776" font-family="Microsoft YaHei" font-size="42" font-weight="700">{{VALUE_KPI_1}}</text>
    <text x="900" y="428" fill="#D2D3D4" font-family="Microsoft YaHei" font-size="14">{{VALUE_KPI_1_DESC}}</text>
    <text x="900" y="494" fill="#B0D776" font-family="Microsoft YaHei" font-size="42" font-weight="700">{{VALUE_KPI_2}}</text>
    <text x="900" y="532" fill="#D2D3D4" font-family="Microsoft YaHei" font-size="14">{{VALUE_KPI_2_DESC}}</text>
    <polygon points="1068,558 1098,558 1126,606 1096,606" fill="#D2D3D4" fill-opacity="0.55"/>
    <polygon points="1110,558 1140,558 1168,606 1138,606" fill="#B0D776"/>
  </g>
  <text x="72" y="686" fill="#4B5563" font-family="Microsoft YaHei" font-size="12">Source: {{SOURCE}}</text>
  <text x="1208" y="686" text-anchor="end" fill="#4B5563" font-family="Microsoft YaHei" font-size="13">{{PAGE_NUM}}</text>
</svg>
