<svg xmlns="http://www.w3.org/2000/svg" width="1280" height="720" viewBox="0 0 1280 720">
  <defs>
    <marker id="stageArrow" viewBox="0 0 10 10" refX="9" refY="5" markerWidth="7" markerHeight="7" orient="auto">
      <path d="M0,0 L10,5 L0,10 Z" fill="#4295B6"/>
    </marker>
  </defs>
  <rect x="0" y="0" width="1280" height="720" fill="#FFFFFF"/>
  <rect x="0" y="0" width="1280" height="10" fill="#4295B6"/>
  <rect x="0" y="10" width="320" height="5" fill="#B0D776"/>
  <image href="images/huixin_logo_light.png" x="1036" y="30" width="170" height="40" preserveAspectRatio="xMidYMid meet"/>
  <text x="72" y="70" font-family="Microsoft YaHei, Arial, sans-serif" font-size="15" font-weight="700" fill="#4295B6">{{SECTION_NAME}}</text>
  <text x="72" y="124" font-family="Microsoft YaHei, Arial, sans-serif" font-size="38" font-weight="700" fill="#0B2F3A">{{PAGE_TITLE}}</text>
  <text x="72" y="160" font-family="Microsoft YaHei, Arial, sans-serif" font-size="18" font-weight="700" fill="#4295B6">{{KEY_MESSAGE}}</text>

  <rect x="72" y="198" width="1136" height="420" rx="14" fill="#F3F7FA" stroke="#D2D3D4"/>
  <g id="left-labels" font-family="Microsoft YaHei, Arial, sans-serif" font-weight="700" text-anchor="middle">
    <rect x="94" y="250" width="74" height="78" rx="10" fill="#4295B6"/>
    <text x="131" y="282" font-size="17" fill="#FFFFFF"><tspan x="131">阶段</tspan><tspan x="131" dy="24">目标</tspan></text>
    <rect x="94" y="340" width="74" height="78" rx="10" fill="#4295B6" fill-opacity="0.86"/>
    <text x="131" y="372" font-size="17" fill="#FFFFFF"><tspan x="131">重点</tspan><tspan x="131" dy="24">关注</tspan></text>
    <rect x="94" y="430" width="74" height="88" rx="10" fill="#0B2F3A"/>
    <text x="131" y="468" font-size="17" fill="#FFFFFF"><tspan x="131">建设</tspan><tspan x="131" dy="24">策略</tspan></text>
    <rect x="94" y="530" width="74" height="54" rx="10" fill="#B0D776"/>
    <text x="131" y="563" font-size="17" fill="#0B2F3A">交付物</text>
  </g>

  <g id="roadmap-line" fill="none" stroke="#4295B6" stroke-width="2" marker-end="url(#stageArrow)">
    <path d="M226 224 L448 224"/>
    <path d="M494 224 L716 224"/>
    <path d="M762 224 L984 224"/>
    <path d="M1030 224 L1170 224"/>
  </g>

  <g id="stage-1" font-family="Microsoft YaHei, Arial, sans-serif">
    <text x="214" y="219" font-size="23" font-weight="700" fill="#4295B6">1.0</text>
    <rect x="206" y="238" width="238" height="52" rx="10" fill="#4295B6"/>
    <text x="325" y="271" text-anchor="middle" font-size="22" font-weight="700" fill="#FFFFFF">{{PHASE_1_TITLE}}</text>
    <rect x="190" y="300" width="270" height="282" rx="12" fill="#FFFFFF" stroke="#D2D3D4"/>
    <text x="210" y="332" font-size="15" font-weight="700" fill="#0B2F3A">{{PHASE_1_GOAL}}</text>
    <text x="210" y="364" font-size="14" fill="#4B5563">{{PHASE_1_DESC_1}}</text>
    <text x="210" y="390" font-size="14" fill="#4B5563">{{PHASE_1_DESC_2}}</text>
    <rect x="210" y="426" width="230" height="26" rx="7" fill="#4295B6" fill-opacity="0.14" stroke="#4295B6"/>
    <text x="325" y="444" text-anchor="middle" font-size="13" font-weight="700" fill="#0B2F3A">{{PHASE_1_FOCUS_1}}</text>
    <rect x="210" y="462" width="230" height="26" rx="7" fill="#B0D776" fill-opacity="0.38" stroke="#B0D776"/>
    <text x="325" y="480" text-anchor="middle" font-size="13" font-weight="700" fill="#0B2F3A">{{PHASE_1_FOCUS_2}}</text>
    <text x="210" y="520" font-size="14" fill="#0B2F3A">• {{PHASE_1_STRATEGY_1}}</text>
    <text x="210" y="548" font-size="14" fill="#0B2F3A">• {{PHASE_1_STRATEGY_2}}</text>
    <text x="210" y="572" font-size="12" fill="#4295B6">{{PHASE_1_DELIVERABLE}}</text>
  </g>

  <g id="stage-2" font-family="Microsoft YaHei, Arial, sans-serif">
    <text x="482" y="219" font-size="23" font-weight="700" fill="#4295B6">2.0</text>
    <rect x="474" y="238" width="238" height="52" rx="10" fill="#4295B6"/>
    <text x="593" y="271" text-anchor="middle" font-size="22" font-weight="700" fill="#FFFFFF">{{PHASE_2_TITLE}}</text>
    <rect x="458" y="300" width="270" height="282" rx="12" fill="#FFFFFF" stroke="#D2D3D4"/>
    <text x="478" y="332" font-size="15" font-weight="700" fill="#0B2F3A">{{PHASE_2_GOAL}}</text>
    <text x="478" y="364" font-size="14" fill="#4B5563">{{PHASE_2_DESC_1}}</text>
    <text x="478" y="390" font-size="14" fill="#4B5563">{{PHASE_2_DESC_2}}</text>
    <rect x="478" y="426" width="230" height="26" rx="7" fill="#4295B6" fill-opacity="0.14" stroke="#4295B6"/>
    <text x="593" y="444" text-anchor="middle" font-size="13" font-weight="700" fill="#0B2F3A">{{PHASE_2_FOCUS_1}}</text>
    <rect x="478" y="462" width="230" height="26" rx="7" fill="#B0D776" fill-opacity="0.38" stroke="#B0D776"/>
    <text x="593" y="480" text-anchor="middle" font-size="13" font-weight="700" fill="#0B2F3A">{{PHASE_2_FOCUS_2}}</text>
    <text x="478" y="520" font-size="14" fill="#0B2F3A">• {{PHASE_2_STRATEGY_1}}</text>
    <text x="478" y="548" font-size="14" fill="#0B2F3A">• {{PHASE_2_STRATEGY_2}}</text>
    <text x="478" y="572" font-size="12" fill="#4295B6">{{PHASE_2_DELIVERABLE}}</text>
  </g>

  <g id="stage-3" font-family="Microsoft YaHei, Arial, sans-serif">
    <text x="750" y="219" font-size="23" font-weight="700" fill="#4295B6">3.0</text>
    <rect x="742" y="238" width="238" height="52" rx="10" fill="#0B2F3A"/>
    <text x="861" y="271" text-anchor="middle" font-size="22" font-weight="700" fill="#FFFFFF">{{PHASE_3_TITLE}}</text>
    <rect x="726" y="300" width="270" height="282" rx="12" fill="#FFFFFF" stroke="#D2D3D4"/>
    <text x="746" y="332" font-size="15" font-weight="700" fill="#0B2F3A">{{PHASE_3_GOAL}}</text>
    <text x="746" y="364" font-size="14" fill="#4B5563">{{PHASE_3_DESC_1}}</text>
    <text x="746" y="390" font-size="14" fill="#4B5563">{{PHASE_3_DESC_2}}</text>
    <rect x="746" y="426" width="230" height="26" rx="7" fill="#4295B6" fill-opacity="0.14" stroke="#4295B6"/>
    <text x="861" y="444" text-anchor="middle" font-size="13" font-weight="700" fill="#0B2F3A">{{PHASE_3_FOCUS_1}}</text>
    <rect x="746" y="462" width="230" height="26" rx="7" fill="#B0D776" fill-opacity="0.38" stroke="#B0D776"/>
    <text x="861" y="480" text-anchor="middle" font-size="13" font-weight="700" fill="#0B2F3A">{{PHASE_3_FOCUS_2}}</text>
    <text x="746" y="520" font-size="14" fill="#0B2F3A">• {{PHASE_3_STRATEGY_1}}</text>
    <text x="746" y="548" font-size="14" fill="#0B2F3A">• {{PHASE_3_STRATEGY_2}}</text>
    <text x="746" y="572" font-size="12" fill="#4295B6">{{PHASE_3_DELIVERABLE}}</text>
  </g>

  <g id="stage-4" font-family="Microsoft YaHei, Arial, sans-serif">
    <text x="1018" y="219" font-size="23" font-weight="700" fill="#4295B6">4.0</text>
    <rect x="1010" y="238" width="166" height="52" rx="10" fill="#0B2F3A"/>
    <text x="1093" y="271" text-anchor="middle" font-size="22" font-weight="700" fill="#FFFFFF">{{PHASE_4_TITLE}}</text>
    <rect x="1010" y="300" width="166" height="282" rx="12" fill="#FFFFFF" stroke="#D2D3D4"/>
    <text x="1030" y="332" font-size="15" font-weight="700" fill="#0B2F3A">{{PHASE_4_GOAL}}</text>
    <text x="1030" y="364" font-size="14" fill="#4B5563">{{PHASE_4_DESC_1}}</text>
    <text x="1030" y="390" font-size="14" fill="#4B5563">{{PHASE_4_DESC_2}}</text>
    <rect x="1030" y="426" width="126" height="26" rx="7" fill="#4295B6" fill-opacity="0.14" stroke="#4295B6"/>
    <text x="1093" y="444" text-anchor="middle" font-size="13" font-weight="700" fill="#0B2F3A">{{PHASE_4_FOCUS_1}}</text>
    <rect x="1030" y="462" width="126" height="26" rx="7" fill="#B0D776" fill-opacity="0.38" stroke="#B0D776"/>
    <text x="1093" y="480" text-anchor="middle" font-size="13" font-weight="700" fill="#0B2F3A">{{PHASE_4_FOCUS_2}}</text>
    <text x="1030" y="520" font-size="14" fill="#0B2F3A">• {{PHASE_4_STRATEGY_1}}</text>
    <text x="1030" y="548" font-size="14" fill="#0B2F3A">• {{PHASE_4_STRATEGY_2}}</text>
    <text x="1030" y="572" font-size="12" fill="#4295B6">{{PHASE_4_DELIVERABLE}}</text>
  </g>

  <line x1="72" y1="652" x2="1208" y2="652" stroke="#D2D3D4" stroke-width="1.5"/>
  <text x="72" y="686" fill="#4B5563" font-family="Microsoft YaHei, Arial, sans-serif" font-size="12">Source: {{SOURCE}}</text>
  <text x="1208" y="686" text-anchor="end" fill="#4B5563" font-family="Microsoft YaHei, Arial, sans-serif" font-size="13">{{PAGE_NUM}}</text>
</svg>
