<svg xmlns="http://www.w3.org/2000/svg" width="1280" height="720" viewBox="0 0 1280 720">
  <rect x="0" y="0" width="1280" height="720" fill="#FFFFFF"/>
  <rect x="0" y="0" width="1280" height="4" fill="#4295B6"/>
  <rect x="0" y="4" width="360" height="4" fill="#B0D776"/>
  <image x="1082" y="22" width="134" height="32" preserveAspectRatio="xMinYMin meet" href="images/huixin_logo_light.png"/>
  <text x="64" y="48" font-family="Microsoft YaHei" font-size="13" fill="#4B5563">AGENDA / REPORT STRUCTURE</text>
  <text x="64" y="116" font-family="Microsoft YaHei" font-size="34" font-weight="bold" fill="#0B2F3A">{{PAGE_TITLE}}</text>
  <text x="64" y="154" font-family="Microsoft YaHei" font-size="20" font-weight="bold" fill="#4295B6">{{KEY_MESSAGE}}</text>
  <line x1="64" y1="178" x2="1216" y2="178" stroke="#D2D3D4" stroke-width="1"/>
  <g id="agenda-spine">
    <line x1="155" y1="230" x2="155" y2="602" stroke="#D2D3D4" stroke-width="2"/>
    <circle cx="155" cy="240" r="8" fill="#4295B6"/>
    <circle cx="155" cy="325" r="8" fill="#4295B6"/>
    <circle cx="155" cy="410" r="8" fill="#4295B6"/>
    <circle cx="155" cy="495" r="8" fill="#B0D776"/>
    <circle cx="155" cy="580" r="8" fill="#4295B6"/>
  </g>
  <g id="agenda-items">
    <rect x="190" y="210" width="890" height="58" rx="4" fill="#F3F7FA" stroke="#D2D3D4"/>
    <text x="215" y="246" font-family="Microsoft YaHei" font-size="21" font-weight="bold" fill="#0B2F3A">01 项目背景与关键问题</text>
    <text x="870" y="246" font-family="Microsoft YaHei" font-size="14" fill="#4B5563">Background / Questions</text>
    <rect x="190" y="295" width="890" height="58" rx="4" fill="#FFFFFF" stroke="#D2D3D4"/>
    <text x="215" y="331" font-family="Microsoft YaHei" font-size="21" font-weight="bold" fill="#0B2F3A">02 现状诊断与成熟度评估</text>
    <text x="870" y="331" font-family="Microsoft YaHei" font-size="14" fill="#4B5563">Diagnosis / Maturity</text>
    <rect x="190" y="380" width="890" height="58" rx="4" fill="#F3F7FA" stroke="#D2D3D4"/>
    <text x="215" y="416" font-family="Microsoft YaHei" font-size="21" font-weight="bold" fill="#0B2F3A">03 目标蓝图与能力差距</text>
    <text x="870" y="416" font-family="Microsoft YaHei" font-size="14" fill="#4B5563">Target / Gap</text>
    <rect x="190" y="465" width="890" height="58" rx="4" fill="#FFFFFF" stroke="#D2D3D4"/>
    <text x="215" y="501" font-family="Microsoft YaHei" font-size="21" font-weight="bold" fill="#0B2F3A">04 举措组合与实施路径</text>
    <text x="870" y="501" font-family="Microsoft YaHei" font-size="14" fill="#4B5563">Initiatives / Roadmap</text>
    <rect x="190" y="550" width="890" height="58" rx="4" fill="#F3F7FA" stroke="#D2D3D4"/>
    <text x="215" y="586" font-family="Microsoft YaHei" font-size="21" font-weight="bold" fill="#0B2F3A">05 治理机制、风险与管理决策</text>
    <text x="870" y="586" font-family="Microsoft YaHei" font-size="14" fill="#4B5563">Governance / Ask</text>
  </g>
  <rect x="1110" y="210" width="106" height="398" fill="#0B2F3A"/>
  <text x="1163" y="286" text-anchor="middle" font-family="Microsoft YaHei" font-size="18" font-weight="bold" fill="#FFFFFF">正式</text>
  <text x="1163" y="346" text-anchor="middle" font-family="Microsoft YaHei" font-size="18" font-weight="bold" fill="#FFFFFF">咨询</text>
  <text x="1163" y="406" text-anchor="middle" font-family="Microsoft YaHei" font-size="18" font-weight="bold" fill="#FFFFFF">交付</text>
  <text x="64" y="674" font-family="Microsoft YaHei" font-size="11" fill="#4B5563">Huixin Consulting Strategy Template</text>
</svg>
