<svg xmlns="http://www.w3.org/2000/svg" width="1280" height="720" viewBox="0 0 1280 720">
  <rect x="0" y="0" width="1280" height="720" fill="#FFFFFF"/>
  <rect x="0" y="0" width="1280" height="720" fill="#F3F7FA"/>
  <rect x="0" y="0" width="1280" height="4" fill="#4295B6"/>
  <rect x="64" y="80" width="1152" height="510" rx="4" fill="#FFFFFF" stroke="#D2D3D4" stroke-width="1"/>
  <rect x="64" y="80" width="12" height="510" fill="#4295B6"/>
  <polygon points="992,80 1216,80 1216,590 1112,590" fill="#0B2F3A"/>
  <polygon points="1050,80 1082,80 1202,590 1170,590" fill="#B0D776"/>
  <image x="1004" y="112" width="188" height="76" preserveAspectRatio="xMinYMin meet" href="images/huixin_logo_dark.png"/>
  <text x="136" y="192" font-family="Microsoft YaHei" font-size="48" font-weight="bold" fill="#0B2F3A">{{TITLE}}</text>
  <text x="136" y="252" font-family="Microsoft YaHei" font-size="22" fill="#4B5563">{{SUBTITLE}}</text>
  <line x1="136" y1="306" x2="762" y2="306" stroke="#D2D3D4" stroke-width="1"/>
  <text x="136" y="366" font-family="Microsoft YaHei" font-size="20" font-weight="bold" fill="#4295B6">建议下一步</text>
  <rect x="136" y="398" width="166" height="48" rx="2" fill="#F3F7FA" stroke="#D2D3D4" stroke-width="1"/>
  <text x="166" y="428" font-family="Microsoft YaHei" font-size="16" font-weight="bold" fill="#0B2F3A">确认试点范围</text>
  <rect x="324" y="398" width="166" height="48" rx="2" fill="#F3F7FA" stroke="#D2D3D4" stroke-width="1"/>
  <text x="354" y="428" font-family="Microsoft YaHei" font-size="16" font-weight="bold" fill="#0B2F3A">建立项目机制</text>
  <rect x="512" y="398" width="166" height="48" rx="2" fill="#B0D776"/>
  <text x="542" y="428" font-family="Microsoft YaHei" font-size="16" font-weight="bold" fill="#0B2F3A">启动蓝图设计</text>
  <text x="136" y="512" font-family="Microsoft YaHei" font-size="14" fill="#4B5563">Strategic clarity, measurable value, disciplined execution.</text>
  <text x="64" y="674" font-family="Microsoft YaHei" font-size="11" fill="#4B5563">Huixin Consulting Strategy Template</text>
</svg>
