<svg xmlns="http://www.w3.org/2000/svg" width="1280" height="720" viewBox="0 0 1280 720">
  <rect width="1280" height="720" fill="#FFFFFF"/>
  <rect width="1280" height="4" fill="#4295B6"/>
  <image x="1082" y="22" width="134" height="32" preserveAspectRatio="xMinYMin meet" href="images/huixin_logo_light.png"/>
  <text x="64" y="48" font-family="Microsoft YaHei" font-size="13" fill="#4B5563">MANAGEMENT ASK</text>
  <text x="64" y="116" font-family="Microsoft YaHei" font-size="34" font-weight="bold" fill="#0B2F3A">{{PAGE_TITLE}}</text>
  <text x="64" y="154" font-family="Microsoft YaHei" font-size="20" font-weight="bold" fill="#4295B6">{{KEY_MESSAGE}}</text>
  <line x1="64" y1="178" x2="1216" y2="178" stroke="#D2D3D4"/>
  <g id="ask-grid">
    <rect x="64" y="226" width="360" height="260" rx="4" fill="#F3F7FA" stroke="#D2D3D4"/>
    <rect x="64" y="226" width="360" height="54" fill="#0B2F3A"/>
    <text x="92" y="260" font-family="Microsoft YaHei" font-size="20" font-weight="bold" fill="#FFFFFF">需要决策的事项</text>
    <text x="92" y="324" font-family="Microsoft YaHei" font-size="16" fill="#0B2F3A">1. {{DECISION_1}}</text>
    <text x="92" y="374" font-family="Microsoft YaHei" font-size="16" fill="#0B2F3A">2. {{DECISION_2}}</text>
    <text x="92" y="424" font-family="Microsoft YaHei" font-size="16" fill="#0B2F3A">3. {{DECISION_3}}</text>
    <rect x="460" y="226" width="360" height="260" rx="4" fill="#FFFFFF" stroke="#D2D3D4"/>
    <rect x="460" y="226" width="360" height="54" fill="#4295B6"/>
    <text x="488" y="260" font-family="Microsoft YaHei" font-size="20" font-weight="bold" fill="#FFFFFF">推荐方案</text>
    <text x="488" y="324" font-family="Microsoft YaHei" font-size="16" fill="#0B2F3A">方案：{{RECOMMENDATION}}</text>
    <text x="488" y="374" font-family="Microsoft YaHei" font-size="16" fill="#0B2F3A">理由：{{RATIONALE}}</text>
    <text x="488" y="424" font-family="Microsoft YaHei" font-size="16" fill="#0B2F3A">收益：{{EXPECTED_VALUE}}</text>
    <rect x="856" y="226" width="360" height="260" rx="4" fill="#F3F7FA" stroke="#D2D3D4"/>
    <rect x="856" y="226" width="360" height="54" fill="#B0D776"/>
    <text x="884" y="260" font-family="Microsoft YaHei" font-size="20" font-weight="bold" fill="#0B2F3A">资源需求</text>
    <text x="884" y="324" font-family="Microsoft YaHei" font-size="16" fill="#0B2F3A">预算：{{BUDGET}}</text>
    <text x="884" y="374" font-family="Microsoft YaHei" font-size="16" fill="#0B2F3A">团队：{{TEAM}}</text>
    <text x="884" y="424" font-family="Microsoft YaHei" font-size="16" fill="#0B2F3A">周期：{{TIMELINE}}</text>
  </g>
  <rect x="64" y="532" width="1152" height="62" rx="4" fill="#0B2F3A"/>
  <text x="92" y="570" font-family="Microsoft YaHei" font-size="20" font-weight="bold" fill="#FFFFFF">下一步：{{NEXT_STEP}}</text>
  <text x="64" y="674" font-family="Microsoft YaHei" font-size="11" fill="#4B5563">Huixin Consulting Strategy Template</text>
</svg>
