<svg xmlns="http://www.w3.org/2000/svg" width="1280" height="720" viewBox="0 0 1280 720">
  <rect width="1280" height="720" fill="#FFFFFF"/>
  <rect width="1280" height="4" fill="#4295B6"/>
  <image x="1082" y="22" width="134" height="32" preserveAspectRatio="xMinYMin meet" href="images/huixin_logo_light.png"/>
  <text x="64" y="48" font-family="Microsoft YaHei" font-size="13" fill="#4B5563">GOVERNANCE MODEL</text>
  <text x="64" y="116" font-family="Microsoft YaHei" font-size="34" font-weight="bold" fill="#0B2F3A">{{PAGE_TITLE}}</text>
  <text x="64" y="154" font-family="Microsoft YaHei" font-size="20" font-weight="bold" fill="#4295B6">{{KEY_MESSAGE}}</text>
  <line x1="64" y1="178" x2="1216" y2="178" stroke="#D2D3D4"/>
  <defs>
    <marker id="arrow-gov" markerWidth="8" markerHeight="8" refX="7" refY="4" orient="auto">
      <path d="M0,0 L8,4 L0,8 Z" fill="#4295B6"/>
    </marker>
  </defs>
  <g id="governance">
    <rect x="440" y="222" width="400" height="62" rx="4" fill="#0B2F3A"/>
    <text x="640" y="260" text-anchor="middle" font-family="Microsoft YaHei" font-size="20" font-weight="bold" fill="#FFFFFF">Steering Committee 决策委员会</text>
    <line x1="640" y1="284" x2="640" y2="336" stroke="#4295B6" stroke-width="2" marker-end="url(#arrow-gov)"/>
    <rect x="440" y="338" width="400" height="62" rx="4" fill="#4295B6"/>
    <text x="640" y="376" text-anchor="middle" font-family="Microsoft YaHei" font-size="20" font-weight="bold" fill="#FFFFFF">PMO 项目管理办公室</text>
    <line x1="640" y1="400" x2="640" y2="448" stroke="#4295B6" stroke-width="2"/>
    <line x1="220" y1="448" x2="1060" y2="448" stroke="#4295B6" stroke-width="2"/>
    <line x1="220" y1="448" x2="220" y2="478" stroke="#4295B6" stroke-width="2"/>
    <line x1="500" y1="448" x2="500" y2="478" stroke="#4295B6" stroke-width="2"/>
    <line x1="780" y1="448" x2="780" y2="478" stroke="#4295B6" stroke-width="2"/>
    <line x1="1060" y1="448" x2="1060" y2="478" stroke="#4295B6" stroke-width="2"/>
    <rect x="90" y="478" width="260" height="106" rx="4" fill="#F3F7FA" stroke="#D2D3D4"/>
    <text x="220" y="516" text-anchor="middle" font-family="Microsoft YaHei" font-size="18" font-weight="bold" fill="#0B2F3A">业务负责人</text>
    <text x="220" y="552" text-anchor="middle" font-family="Microsoft YaHei" font-size="13" fill="#4B5563">{{BUSINESS_ROLE}}</text>
    <rect x="370" y="478" width="260" height="106" rx="4" fill="#FFFFFF" stroke="#D2D3D4"/>
    <text x="500" y="516" text-anchor="middle" font-family="Microsoft YaHei" font-size="18" font-weight="bold" fill="#0B2F3A">IT 与数据团队</text>
    <text x="500" y="552" text-anchor="middle" font-family="Microsoft YaHei" font-size="13" fill="#4B5563">{{IT_ROLE}}</text>
    <rect x="650" y="478" width="260" height="106" rx="4" fill="#F3F7FA" stroke="#D2D3D4"/>
    <text x="780" y="516" text-anchor="middle" font-family="Microsoft YaHei" font-size="18" font-weight="bold" fill="#0B2F3A">供应商与专家</text>
    <text x="780" y="552" text-anchor="middle" font-family="Microsoft YaHei" font-size="13" fill="#4B5563">{{VENDOR_ROLE}}</text>
    <rect x="930" y="478" width="260" height="106" rx="4" fill="#FFFFFF" stroke="#D2D3D4"/>
    <text x="1060" y="516" text-anchor="middle" font-family="Microsoft YaHei" font-size="18" font-weight="bold" fill="#0B2F3A">变革与培训</text>
    <text x="1060" y="552" text-anchor="middle" font-family="Microsoft YaHei" font-size="13" fill="#4B5563">{{CHANGE_ROLE}}</text>
  </g>
  <text x="64" y="674" font-family="Microsoft YaHei" font-size="11" fill="#4B5563">Huixin Consulting Strategy Template</text>
</svg>
