<svg xmlns="http://www.w3.org/2000/svg" width="1280" height="720" viewBox="0 0 1280 720">
  <rect width="1280" height="720" fill="#FFFFFF"/>
  <rect width="1280" height="4" fill="#4295B6"/>
  <image x="1082" y="22" width="134" height="32" preserveAspectRatio="xMinYMin meet" href="images/huixin_logo_light.png"/>
  <text x="64" y="48" font-family="Microsoft YaHei" font-size="13" fill="#4B5563">INITIATIVE PORTFOLIO</text>
  <text x="64" y="116" font-family="Microsoft YaHei" font-size="34" font-weight="bold" fill="#0B2F3A">{{PAGE_TITLE}}</text>
  <text x="64" y="154" font-family="Microsoft YaHei" font-size="20" font-weight="bold" fill="#4295B6">{{KEY_MESSAGE}}</text>
  <line x1="64" y1="178" x2="1216" y2="178" stroke="#D2D3D4"/>
  <g id="portfolio">
    <line x1="154" y1="570" x2="870" y2="570" stroke="#4B5563" stroke-width="2"/>
    <line x1="154" y1="570" x2="154" y2="230" stroke="#4B5563" stroke-width="2"/>
    <text x="500" y="612" text-anchor="middle" font-family="Microsoft YaHei" font-size="15" fill="#4B5563">实施难度</text>
    <text x="104" y="400" text-anchor="middle" font-family="Microsoft YaHei" font-size="15" fill="#4B5563" transform="rotate(-90 104 400)">战略价值</text>
    <line x1="154" y1="400" x2="870" y2="400" stroke="#D2D3D4" stroke-dasharray="6 6"/>
    <line x1="512" y1="230" x2="512" y2="570" stroke="#D2D3D4" stroke-dasharray="6 6"/>
    <rect x="184" y="256" width="238" height="98" rx="4" fill="#B0D776" opacity="0.86"/>
    <text x="303" y="292" text-anchor="middle" font-family="Microsoft YaHei" font-size="18" font-weight="bold" fill="#0B2F3A">Quick Wins</text>
    <text x="303" y="324" text-anchor="middle" font-family="Microsoft YaHei" font-size="14" fill="#0B2F3A">{{INITIATIVE_QW}}</text>
    <rect x="574" y="256" width="238" height="98" rx="4" fill="#4295B6" opacity="0.92"/>
    <text x="693" y="292" text-anchor="middle" font-family="Microsoft YaHei" font-size="18" font-weight="bold" fill="#FFFFFF">Strategic Bets</text>
    <text x="693" y="324" text-anchor="middle" font-family="Microsoft YaHei" font-size="14" fill="#FFFFFF">{{INITIATIVE_SB}}</text>
    <rect x="184" y="446" width="238" height="98" rx="4" fill="#F3F7FA" stroke="#D2D3D4"/>
    <text x="303" y="482" text-anchor="middle" font-family="Microsoft YaHei" font-size="18" font-weight="bold" fill="#0B2F3A">Foundation</text>
    <text x="303" y="514" text-anchor="middle" font-family="Microsoft YaHei" font-size="14" fill="#4B5563">{{INITIATIVE_FD}}</text>
    <rect x="574" y="446" width="238" height="98" rx="4" fill="#FFFFFF" stroke="#D2D3D4"/>
    <text x="693" y="482" text-anchor="middle" font-family="Microsoft YaHei" font-size="18" font-weight="bold" fill="#0B2F3A">Selective Pilots</text>
    <text x="693" y="514" text-anchor="middle" font-family="Microsoft YaHei" font-size="14" fill="#4B5563">{{INITIATIVE_SP}}</text>
    <rect x="930" y="230" width="286" height="314" rx="4" fill="#F3F7FA" stroke="#D2D3D4"/>
    <text x="958" y="270" font-family="Microsoft YaHei" font-size="20" font-weight="bold" fill="#0B2F3A">组合管理原则</text>
    <text x="958" y="324" font-family="Microsoft YaHei" font-size="15" fill="#4B5563">1. {{RULE_1}}</text>
    <text x="958" y="376" font-family="Microsoft YaHei" font-size="15" fill="#4B5563">2. {{RULE_2}}</text>
    <text x="958" y="428" font-family="Microsoft YaHei" font-size="15" fill="#4B5563">3. {{RULE_3}}</text>
    <rect x="958" y="478" width="220" height="38" rx="4" fill="#0B2F3A"/>
    <text x="1068" y="503" text-anchor="middle" font-family="Microsoft YaHei" font-size="15" font-weight="bold" fill="#FFFFFF">{{PORTFOLIO_DECISION}}</text>
  </g>
  <text x="64" y="674" font-family="Microsoft YaHei" font-size="11" fill="#4B5563">Huixin Consulting Strategy Template</text>
</svg>
