<svg xmlns="http://www.w3.org/2000/svg" width="1280" height="720" viewBox="0 0 1280 720">
  <rect width="1280" height="720" fill="#FFFFFF"/>
  <rect width="1280" height="4" fill="#4295B6"/>
  <image x="1082" y="22" width="134" height="32" preserveAspectRatio="xMinYMin meet" href="images/huixin_logo_light.png"/>
  <text x="64" y="48" font-family="Microsoft YaHei" font-size="13" fill="#4B5563">PRIORITY MATRIX</text>
  <text x="64" y="116" font-family="Microsoft YaHei" font-size="34" font-weight="bold" fill="#0B2F3A">{{PAGE_TITLE}}</text>
  <text x="64" y="154" font-family="Microsoft YaHei" font-size="20" font-weight="bold" fill="#4295B6">{{KEY_MESSAGE}}</text>
  <line x1="64" y1="178" x2="1216" y2="178" stroke="#D2D3D4"/>
  <g id="priority-matrix">
    <rect x="130" y="230" width="760" height="360" fill="#FFFFFF" stroke="#4B5563"/>
    <line x1="510" y1="230" x2="510" y2="590" stroke="#D2D3D4"/>
    <line x1="130" y1="410" x2="890" y2="410" stroke="#D2D3D4"/>
    <text x="510" y="622" text-anchor="middle" font-family="Microsoft YaHei" font-size="15" fill="#4B5563">投入复杂度</text>
    <text x="94" y="410" text-anchor="middle" font-family="Microsoft YaHei" font-size="15" fill="#4B5563" transform="rotate(-90 94 410)">业务收益</text>
    <rect x="160" y="260" width="300" height="118" rx="4" fill="#B0D776" opacity="0.9"/>
    <text x="310" y="296" text-anchor="middle" font-family="Microsoft YaHei" font-size="18" font-weight="bold" fill="#0B2F3A">立即推进</text>
    <text x="310" y="330" text-anchor="middle" font-family="Microsoft YaHei" font-size="14" fill="#0B2F3A">{{DO_NOW}}</text>
    <rect x="560" y="260" width="300" height="118" rx="4" fill="#4295B6" opacity="0.92"/>
    <text x="710" y="296" text-anchor="middle" font-family="Microsoft YaHei" font-size="18" font-weight="bold" fill="#FFFFFF">重点攻坚</text>
    <text x="710" y="330" text-anchor="middle" font-family="Microsoft YaHei" font-size="14" fill="#FFFFFF">{{STRATEGIC_BET}}</text>
    <rect x="160" y="450" width="300" height="118" rx="4" fill="#F3F7FA" stroke="#D2D3D4"/>
    <text x="310" y="486" text-anchor="middle" font-family="Microsoft YaHei" font-size="18" font-weight="bold" fill="#0B2F3A">观察准备</text>
    <text x="310" y="520" text-anchor="middle" font-family="Microsoft YaHei" font-size="14" fill="#4B5563">{{MONITOR}}</text>
    <rect x="560" y="450" width="300" height="118" rx="4" fill="#FFFFFF" stroke="#D2D3D4"/>
    <text x="710" y="486" text-anchor="middle" font-family="Microsoft YaHei" font-size="18" font-weight="bold" fill="#0B2F3A">谨慎投入</text>
    <text x="710" y="520" text-anchor="middle" font-family="Microsoft YaHei" font-size="14" fill="#4B5563">{{DEFER}}</text>
    <rect x="940" y="230" width="276" height="360" rx="4" fill="#F3F7FA" stroke="#D2D3D4"/>
    <text x="968" y="270" font-family="Microsoft YaHei" font-size="20" font-weight="bold" fill="#0B2F3A">优先级评分</text>
    <text x="968" y="318" font-family="Microsoft YaHei" font-size="15" fill="#4B5563">战略价值：{{SCORE_VALUE}}</text>
    <text x="968" y="366" font-family="Microsoft YaHei" font-size="15" fill="#4B5563">实施周期：{{SCORE_CYCLE}}</text>
    <text x="968" y="414" font-family="Microsoft YaHei" font-size="15" fill="#4B5563">资源需求：{{SCORE_RESOURCE}}</text>
    <text x="968" y="462" font-family="Microsoft YaHei" font-size="15" fill="#4B5563">依赖风险：{{SCORE_RISK}}</text>
    <rect x="968" y="508" width="210" height="38" rx="4" fill="#0B2F3A"/>
    <text x="1073" y="533" text-anchor="middle" font-family="Microsoft YaHei" font-size="15" font-weight="bold" fill="#FFFFFF">{{PRIORITY_DECISION}}</text>
  </g>
  <text x="64" y="674" font-family="Microsoft YaHei" font-size="11" fill="#4B5563">Huixin Consulting Strategy Template</text>
</svg>
