<svg xmlns="http://www.w3.org/2000/svg" width="1280" height="720" viewBox="0 0 1280 720">
  <rect width="1280" height="720" fill="#FFFFFF"/>
  <rect width="1280" height="4" fill="#4295B6"/>
  <image x="1082" y="22" width="134" height="32" preserveAspectRatio="xMinYMin meet" href="images/huixin_logo_light.png"/>
  <text x="64" y="48" font-family="Microsoft YaHei" font-size="13" fill="#4B5563">RACI MATRIX</text>
  <text x="64" y="116" font-family="Microsoft YaHei" font-size="34" font-weight="bold" fill="#0B2F3A">{{PAGE_TITLE}}</text>
  <text x="64" y="154" font-family="Microsoft YaHei" font-size="20" font-weight="bold" fill="#4295B6">{{KEY_MESSAGE}}</text>
  <line x1="64" y1="178" x2="1216" y2="178" stroke="#D2D3D4"/>
  <g id="raci">
    <rect x="64" y="220" width="1152" height="52" fill="#0B2F3A"/>
    <text x="92" y="253" font-family="Microsoft YaHei" font-size="15" font-weight="bold" fill="#FFFFFF">工作事项</text>
    <text x="420" y="253" text-anchor="middle" font-family="Microsoft YaHei" font-size="15" font-weight="bold" fill="#FFFFFF">业务负责人</text>
    <text x="600" y="253" text-anchor="middle" font-family="Microsoft YaHei" font-size="15" font-weight="bold" fill="#FFFFFF">PMO</text>
    <text x="780" y="253" text-anchor="middle" font-family="Microsoft YaHei" font-size="15" font-weight="bold" fill="#FFFFFF">IT 数据</text>
    <text x="960" y="253" text-anchor="middle" font-family="Microsoft YaHei" font-size="15" font-weight="bold" fill="#FFFFFF">供应商</text>
    <text x="1120" y="253" text-anchor="middle" font-family="Microsoft YaHei" font-size="15" font-weight="bold" fill="#FFFFFF">领导层</text>
    <g font-family="Microsoft YaHei" font-size="15" fill="#0B2F3A">
      <rect x="64" y="272" width="1152" height="58" fill="#F3F7FA" stroke="#D2D3D4"/>
      <text x="92" y="307">{{TASK_1}}</text><text x="420" y="307" text-anchor="middle" font-weight="bold">A</text><text x="600" y="307" text-anchor="middle">R</text><text x="780" y="307" text-anchor="middle">C</text><text x="960" y="307" text-anchor="middle">C</text><text x="1120" y="307" text-anchor="middle">I</text>
      <rect x="64" y="330" width="1152" height="58" fill="#FFFFFF" stroke="#D2D3D4"/>
      <text x="92" y="365">{{TASK_2}}</text><text x="420" y="365" text-anchor="middle">C</text><text x="600" y="365" text-anchor="middle" font-weight="bold">A</text><text x="780" y="365" text-anchor="middle">R</text><text x="960" y="365" text-anchor="middle">R</text><text x="1120" y="365" text-anchor="middle">I</text>
      <rect x="64" y="388" width="1152" height="58" fill="#F3F7FA" stroke="#D2D3D4"/>
      <text x="92" y="423">{{TASK_3}}</text><text x="420" y="423" text-anchor="middle">R</text><text x="600" y="423" text-anchor="middle">C</text><text x="780" y="423" text-anchor="middle" font-weight="bold">A</text><text x="960" y="423" text-anchor="middle">R</text><text x="1120" y="423" text-anchor="middle">I</text>
      <rect x="64" y="446" width="1152" height="58" fill="#FFFFFF" stroke="#D2D3D4"/>
      <text x="92" y="481">{{TASK_4}}</text><text x="420" y="481" text-anchor="middle">C</text><text x="600" y="481" text-anchor="middle" font-weight="bold">A</text><text x="780" y="481" text-anchor="middle">R</text><text x="960" y="481" text-anchor="middle">C</text><text x="1120" y="481" text-anchor="middle">I</text>
      <rect x="64" y="504" width="1152" height="58" fill="#F3F7FA" stroke="#D2D3D4"/>
      <text x="92" y="539">{{TASK_5}}</text><text x="420" y="539" text-anchor="middle">R</text><text x="600" y="539" text-anchor="middle">A</text><text x="780" y="539" text-anchor="middle">C</text><text x="960" y="539" text-anchor="middle">I</text><text x="1120" y="539" text-anchor="middle" font-weight="bold">A</text>
    </g>
  </g>
  <rect x="64" y="592" width="620" height="36" rx="4" fill="#F3F7FA" stroke="#D2D3D4"/>
  <text x="88" y="616" font-family="Microsoft YaHei" font-size="13" fill="#4B5563">R=负责执行 A=最终负责 C=需咨询 I=需知会</text>
  <text x="64" y="674" font-family="Microsoft YaHei" font-size="11" fill="#4B5563">Huixin Consulting Strategy Template</text>
</svg>
