<svg xmlns="http://www.w3.org/2000/svg" width="1280" height="720" viewBox="0 0 1280 720">
  <rect width="1280" height="720" fill="#FFFFFF"/>
  <rect width="1280" height="4" fill="#4295B6"/>
  <image x="1082" y="22" width="134" height="32" preserveAspectRatio="xMinYMin meet" href="images/huixin_logo_light.png"/>
  <text x="64" y="48" font-family="Microsoft YaHei" font-size="13" fill="#4B5563">TARGET BLUEPRINT</text>
  <text x="64" y="116" font-family="Microsoft YaHei" font-size="34" font-weight="bold" fill="#0B2F3A">{{PAGE_TITLE}}</text>
  <text x="64" y="154" font-family="Microsoft YaHei" font-size="20" font-weight="bold" fill="#4295B6">{{KEY_MESSAGE}}</text>
  <line x1="64" y1="178" x2="1216" y2="178" stroke="#D2D3D4"/>
  <g id="blueprint-layers">
    <rect x="64" y="220" width="1152" height="74" rx="4" fill="#0B2F3A"/>
    <text x="90" y="264" font-family="Microsoft YaHei" font-size="22" font-weight="bold" fill="#FFFFFF">业务蓝图</text>
    <rect x="260" y="238" width="170" height="38" rx="3" fill="#FFFFFF" opacity="0.12"/>
    <text x="345" y="263" text-anchor="middle" font-family="Microsoft YaHei" font-size="15" fill="#FFFFFF">{{BUSINESS_CAP_1}}</text>
    <rect x="454" y="238" width="170" height="38" rx="3" fill="#FFFFFF" opacity="0.12"/>
    <text x="539" y="263" text-anchor="middle" font-family="Microsoft YaHei" font-size="15" fill="#FFFFFF">{{BUSINESS_CAP_2}}</text>
    <rect x="648" y="238" width="170" height="38" rx="3" fill="#FFFFFF" opacity="0.12"/>
    <text x="733" y="263" text-anchor="middle" font-family="Microsoft YaHei" font-size="15" fill="#FFFFFF">{{BUSINESS_CAP_3}}</text>
    <rect x="842" y="238" width="170" height="38" rx="3" fill="#FFFFFF" opacity="0.12"/>
    <text x="927" y="263" text-anchor="middle" font-family="Microsoft YaHei" font-size="15" fill="#FFFFFF">{{BUSINESS_CAP_4}}</text>
    <rect x="64" y="318" width="1152" height="100" rx="4" fill="#F3F7FA" stroke="#D2D3D4"/>
    <text x="90" y="362" font-family="Microsoft YaHei" font-size="22" font-weight="bold" fill="#0B2F3A">能力蓝图</text>
    <rect x="260" y="340" width="146" height="54" rx="4" fill="#FFFFFF" stroke="#D2D3D4"/>
    <text x="333" y="373" text-anchor="middle" font-family="Microsoft YaHei" font-size="15" font-weight="bold" fill="#0B2F3A">{{CAPABILITY_1}}</text>
    <rect x="430" y="340" width="146" height="54" rx="4" fill="#FFFFFF" stroke="#D2D3D4"/>
    <text x="503" y="373" text-anchor="middle" font-family="Microsoft YaHei" font-size="15" font-weight="bold" fill="#0B2F3A">{{CAPABILITY_2}}</text>
    <rect x="600" y="340" width="146" height="54" rx="4" fill="#FFFFFF" stroke="#D2D3D4"/>
    <text x="673" y="373" text-anchor="middle" font-family="Microsoft YaHei" font-size="15" font-weight="bold" fill="#0B2F3A">{{CAPABILITY_3}}</text>
    <rect x="770" y="340" width="146" height="54" rx="4" fill="#FFFFFF" stroke="#D2D3D4"/>
    <text x="843" y="373" text-anchor="middle" font-family="Microsoft YaHei" font-size="15" font-weight="bold" fill="#0B2F3A">{{CAPABILITY_4}}</text>
    <rect x="940" y="340" width="146" height="54" rx="4" fill="#FFFFFF" stroke="#D2D3D4"/>
    <text x="1013" y="373" text-anchor="middle" font-family="Microsoft YaHei" font-size="15" font-weight="bold" fill="#0B2F3A">{{CAPABILITY_5}}</text>
    <rect x="64" y="442" width="1152" height="84" rx="4" fill="#FFFFFF" stroke="#D2D3D4"/>
    <text x="90" y="492" font-family="Microsoft YaHei" font-size="22" font-weight="bold" fill="#0B2F3A">数据蓝图</text>
    <text x="260" y="492" font-family="Microsoft YaHei" font-size="17" font-weight="bold" fill="#4295B6">{{DATA_DOMAIN_1}}</text>
    <text x="444" y="492" font-family="Microsoft YaHei" font-size="17" font-weight="bold" fill="#4295B6">{{DATA_DOMAIN_2}}</text>
    <text x="628" y="492" font-family="Microsoft YaHei" font-size="17" font-weight="bold" fill="#4295B6">{{DATA_DOMAIN_3}}</text>
    <text x="812" y="492" font-family="Microsoft YaHei" font-size="17" font-weight="bold" fill="#4295B6">{{DATA_DOMAIN_4}}</text>
    <text x="996" y="492" font-family="Microsoft YaHei" font-size="17" font-weight="bold" fill="#4295B6">{{DATA_DOMAIN_5}}</text>
    <rect x="64" y="550" width="1152" height="54" rx="4" fill="#B0D776"/>
    <text x="90" y="584" font-family="Microsoft YaHei" font-size="20" font-weight="bold" fill="#0B2F3A">组织与治理保障：{{GOVERNANCE_THEME}}</text>
  </g>
  <text x="64" y="674" font-family="Microsoft YaHei" font-size="11" fill="#4B5563">Huixin Consulting Strategy Template</text>
</svg>
