<svg xmlns="http://www.w3.org/2000/svg" width="1280" height="720" viewBox="0 0 1280 720">
  <rect width="1280" height="720" fill="#FFFFFF"/>
  <rect width="1280" height="4" fill="#4295B6"/>
  <image x="1082" y="22" width="134" height="32" preserveAspectRatio="xMinYMin meet" href="images/huixin_logo_light.png"/>
  <text x="64" y="48" font-family="Microsoft YaHei" font-size="13" fill="#4B5563">VALUE CHAIN ANALYSIS</text>
  <text x="64" y="116" font-family="Microsoft YaHei" font-size="34" font-weight="bold" fill="#0B2F3A">{{PAGE_TITLE}}</text>
  <text x="64" y="154" font-family="Microsoft YaHei" font-size="20" font-weight="bold" fill="#4295B6">{{KEY_MESSAGE}}</text>
  <line x1="64" y1="178" x2="1216" y2="178" stroke="#D2D3D4"/>
  <defs>
    <marker id="arrow-vc" markerWidth="8" markerHeight="8" refX="7" refY="4" orient="auto">
      <path d="M0,0 L8,4 L0,8 Z" fill="#4295B6"/>
    </marker>
  </defs>
  <g id="chain">
    <line x1="116" y1="316" x2="1160" y2="316" stroke="#4295B6" stroke-width="3" marker-end="url(#arrow-vc)"/>
    <g>
      <rect x="64" y="244" width="130" height="120" rx="4" fill="#F3F7FA" stroke="#D2D3D4"/>
      <text x="129" y="278" text-anchor="middle" font-family="Microsoft YaHei" font-size="18" font-weight="bold" fill="#0B2F3A">销售</text>
      <text x="129" y="320" text-anchor="middle" font-family="Microsoft YaHei" font-size="13" fill="#4B5563">{{SALES_BREAK}}</text>
      <rect x="70" y="344" width="118" height="26" rx="3" fill="#B0D776"/>
      <text x="129" y="362" text-anchor="middle" font-family="Microsoft YaHei" font-size="12" font-weight="bold" fill="#0B2F3A">机会点</text>
    </g>
    <g>
      <rect x="222" y="244" width="130" height="120" rx="4" fill="#FFFFFF" stroke="#D2D3D4"/>
      <text x="287" y="278" text-anchor="middle" font-family="Microsoft YaHei" font-size="18" font-weight="bold" fill="#0B2F3A">研发</text>
      <text x="287" y="320" text-anchor="middle" font-family="Microsoft YaHei" font-size="13" fill="#4B5563">{{RND_BREAK}}</text>
    </g>
    <g>
      <rect x="380" y="244" width="130" height="120" rx="4" fill="#F3F7FA" stroke="#D2D3D4"/>
      <text x="445" y="278" text-anchor="middle" font-family="Microsoft YaHei" font-size="18" font-weight="bold" fill="#0B2F3A">计划</text>
      <text x="445" y="320" text-anchor="middle" font-family="Microsoft YaHei" font-size="13" fill="#4B5563">{{PLAN_BREAK}}</text>
    </g>
    <g>
      <rect x="538" y="244" width="130" height="120" rx="4" fill="#FFFFFF" stroke="#D2D3D4"/>
      <text x="603" y="278" text-anchor="middle" font-family="Microsoft YaHei" font-size="18" font-weight="bold" fill="#0B2F3A">生产</text>
      <text x="603" y="320" text-anchor="middle" font-family="Microsoft YaHei" font-size="13" fill="#4B5563">{{MFG_BREAK}}</text>
      <rect x="544" y="344" width="118" height="26" rx="3" fill="#4295B6"/>
      <text x="603" y="362" text-anchor="middle" font-family="Microsoft YaHei" font-size="12" font-weight="bold" fill="#FFFFFF">关键断点</text>
    </g>
    <g>
      <rect x="696" y="244" width="130" height="120" rx="4" fill="#F3F7FA" stroke="#D2D3D4"/>
      <text x="761" y="278" text-anchor="middle" font-family="Microsoft YaHei" font-size="18" font-weight="bold" fill="#0B2F3A">质量</text>
      <text x="761" y="320" text-anchor="middle" font-family="Microsoft YaHei" font-size="13" fill="#4B5563">{{QUALITY_BREAK}}</text>
    </g>
    <g>
      <rect x="854" y="244" width="130" height="120" rx="4" fill="#FFFFFF" stroke="#D2D3D4"/>
      <text x="919" y="278" text-anchor="middle" font-family="Microsoft YaHei" font-size="18" font-weight="bold" fill="#0B2F3A">交付</text>
      <text x="919" y="320" text-anchor="middle" font-family="Microsoft YaHei" font-size="13" fill="#4B5563">{{DELIVERY_BREAK}}</text>
    </g>
    <g>
      <rect x="1012" y="244" width="130" height="120" rx="4" fill="#F3F7FA" stroke="#D2D3D4"/>
      <text x="1077" y="278" text-anchor="middle" font-family="Microsoft YaHei" font-size="18" font-weight="bold" fill="#0B2F3A">服务</text>
      <text x="1077" y="320" text-anchor="middle" font-family="Microsoft YaHei" font-size="13" fill="#4B5563">{{SERVICE_BREAK}}</text>
    </g>
  </g>
  <g id="insight-row">
    <rect x="64" y="444" width="350" height="94" rx="4" fill="#F3F7FA" stroke="#D2D3D4"/>
    <text x="88" y="478" font-family="Microsoft YaHei" font-size="17" font-weight="bold" fill="#0B2F3A">主要价值断点</text>
    <text x="88" y="512" font-family="Microsoft YaHei" font-size="14" fill="#4B5563">{{VALUE_BREAKPOINT}}</text>
    <rect x="465" y="444" width="350" height="94" rx="4" fill="#FFFFFF" stroke="#D2D3D4"/>
    <text x="489" y="478" font-family="Microsoft YaHei" font-size="17" font-weight="bold" fill="#0B2F3A">根因判断</text>
    <text x="489" y="512" font-family="Microsoft YaHei" font-size="14" fill="#4B5563">{{ROOT_CAUSE}}</text>
    <rect x="866" y="444" width="350" height="94" rx="4" fill="#F3F7FA" stroke="#D2D3D4"/>
    <text x="890" y="478" font-family="Microsoft YaHei" font-size="17" font-weight="bold" fill="#0B2F3A">改进主线</text>
    <text x="890" y="512" font-family="Microsoft YaHei" font-size="14" fill="#4B5563">{{IMPROVEMENT_THEME}}</text>
  </g>
  <text x="64" y="674" font-family="Microsoft YaHei" font-size="11" fill="#4B5563">Huixin Consulting Strategy Template</text>
</svg>
