<?xml version="1.0" encoding="UTF-8"?>
<svg width="1280" height="720" xmlns="http://www.w3.org/2000/svg" viewBox="0 0 1280 720">
  <rect x="0" y="0" width="1280" height="720" fill="#FFFFFF"/>
  <rect x="0" y="0" width="1280" height="5" fill="#4295B6"/>
  <text x="64" y="45" fill="#4B5563" font-family="Microsoft YaHei" font-size="13">12 / PRODUCT LINE PERFORMANCE</text>
  <image href="images/huixin_logo_light.png" x="1030" y="18" width="170" height="40" preserveAspectRatio="xMidYMid meet"/>
  <text x="64" y="112" fill="#0B2F3A" font-family="Microsoft YaHei" font-size="36" font-weight="700">{{PAGE_TITLE}}</text>
  <text x="64" y="152" fill="#4295B6" font-family="Microsoft YaHei" font-size="19" font-weight="700">{{KEY_MESSAGE}}</text>

  <g id="product-bars">
    <rect x="64" y="194" width="520" height="378" rx="4" fill="#FFFFFF" stroke="#D2D3D4"/>
    <text x="92" y="232" fill="#0B2F3A" font-family="Microsoft YaHei" font-size="22" font-weight="700">产品线收入与毛利</text>
    <line x1="112" y1="512" x2="540" y2="512" stroke="#D2D3D4"/>
    <rect x="128" y="338" width="44" height="174" fill="#4295B6"/>
    <rect x="178" y="402" width="44" height="110" fill="#B0D776"/>
    <rect x="258" y="286" width="44" height="226" fill="#4295B6"/>
    <rect x="308" y="374" width="44" height="138" fill="#B0D776"/>
    <rect x="388" y="420" width="44" height="92" fill="#4295B6"/>
    <rect x="438" y="446" width="44" height="66" fill="#B0D776"/>
    <text x="175" y="546" text-anchor="middle" fill="#4B5563" font-family="Microsoft YaHei" font-size="13">{{PRODUCT_1}}</text>
    <text x="305" y="546" text-anchor="middle" fill="#4B5563" font-family="Microsoft YaHei" font-size="13">{{PRODUCT_2}}</text>
    <text x="435" y="546" text-anchor="middle" fill="#4B5563" font-family="Microsoft YaHei" font-size="13">{{PRODUCT_3}}</text>
    <rect x="410" y="224" width="16" height="10" fill="#4295B6"/>
    <text x="432" y="234" fill="#4B5563" font-family="Microsoft YaHei" font-size="12">收入</text>
    <rect x="480" y="224" width="16" height="10" fill="#B0D776"/>
    <text x="502" y="234" fill="#4B5563" font-family="Microsoft YaHei" font-size="12">毛利</text>
  </g>

  <g id="product-table">
    <rect x="620" y="194" width="596" height="378" fill="#FFFFFF" stroke="#D2D3D4"/>
    <text x="648" y="232" fill="#0B2F3A" font-family="Microsoft YaHei" font-size="22" font-weight="700">产品线经营明细</text>
    <rect x="648" y="258" width="540" height="38" fill="#0B2F3A"/>
    <text x="670" y="283" fill="#FFFFFF" font-family="Microsoft YaHei" font-size="14" font-weight="700">产品线</text>
    <text x="820" y="283" fill="#FFFFFF" font-family="Microsoft YaHei" font-size="14" font-weight="700">收入</text>
    <text x="916" y="283" fill="#FFFFFF" font-family="Microsoft YaHei" font-size="14" font-weight="700">毛利率</text>
    <text x="1016" y="283" fill="#FFFFFF" font-family="Microsoft YaHei" font-size="14" font-weight="700">重点动作</text>
    <rect x="648" y="296" width="540" height="46" fill="#F3F7FA"/>
    <rect x="648" y="388" width="540" height="46" fill="#F3F7FA"/>
    <rect x="648" y="480" width="540" height="46" fill="#F3F7FA"/>
    <line x1="648" y1="342" x2="1188" y2="342" stroke="#D2D3D4"/>
    <line x1="648" y1="388" x2="1188" y2="388" stroke="#D2D3D4"/>
    <line x1="648" y1="434" x2="1188" y2="434" stroke="#D2D3D4"/>
    <line x1="648" y1="480" x2="1188" y2="480" stroke="#D2D3D4"/>
    <line x1="648" y1="526" x2="1188" y2="526" stroke="#D2D3D4"/>
    <text x="670" y="326" fill="#0B2F3A" font-family="Microsoft YaHei" font-size="14">{{PRODUCT_1}}</text>
    <text x="820" y="326" fill="#0B2F3A" font-family="Microsoft YaHei" font-size="14">{{PRODUCT_1_REV}}</text>
    <text x="916" y="326" fill="#0B2F3A" font-family="Microsoft YaHei" font-size="14">{{PRODUCT_1_MARGIN}}</text>
    <text x="1016" y="326" fill="#4B5563" font-family="Microsoft YaHei" font-size="14">{{PRODUCT_1_ACTION}}</text>
    <text x="670" y="372" fill="#0B2F3A" font-family="Microsoft YaHei" font-size="14">{{PRODUCT_2}}</text>
    <text x="820" y="372" fill="#0B2F3A" font-family="Microsoft YaHei" font-size="14">{{PRODUCT_2_REV}}</text>
    <text x="916" y="372" fill="#0B2F3A" font-family="Microsoft YaHei" font-size="14">{{PRODUCT_2_MARGIN}}</text>
    <text x="1016" y="372" fill="#4B5563" font-family="Microsoft YaHei" font-size="14">{{PRODUCT_2_ACTION}}</text>
    <text x="670" y="418" fill="#0B2F3A" font-family="Microsoft YaHei" font-size="14">{{PRODUCT_3}}</text>
    <text x="820" y="418" fill="#0B2F3A" font-family="Microsoft YaHei" font-size="14">{{PRODUCT_3_REV}}</text>
    <text x="916" y="418" fill="#0B2F3A" font-family="Microsoft YaHei" font-size="14">{{PRODUCT_3_MARGIN}}</text>
    <text x="1016" y="418" fill="#4B5563" font-family="Microsoft YaHei" font-size="14">{{PRODUCT_3_ACTION}}</text>
    <text x="670" y="464" fill="#0B2F3A" font-family="Microsoft YaHei" font-size="14">{{PRODUCT_4}}</text>
    <text x="820" y="464" fill="#0B2F3A" font-family="Microsoft YaHei" font-size="14">{{PRODUCT_4_REV}}</text>
    <text x="916" y="464" fill="#0B2F3A" font-family="Microsoft YaHei" font-size="14">{{PRODUCT_4_MARGIN}}</text>
    <text x="1016" y="464" fill="#4B5563" font-family="Microsoft YaHei" font-size="14">{{PRODUCT_4_ACTION}}</text>
  </g>

  <g id="portfolio-note">
    <rect x="64" y="600" width="1152" height="42" rx="4" fill="#0B2F3A"/>
    <text x="92" y="627" fill="#FFFFFF" font-family="Microsoft YaHei" font-size="16">组合判断：{{PORTFOLIO_JUDGEMENT}}</text>
    <rect x="1050" y="604" width="130" height="34" rx="2" fill="#B0D776"/>
    <text x="1080" y="627" fill="#0B2F3A" font-family="Microsoft YaHei" font-size="14" font-weight="700">{{NEXT_ACTION}}</text>
  </g>

  <text x="64" y="674" fill="#4B5563" font-family="Microsoft YaHei" font-size="11">Huixin Management Report Template</text>
  <text x="1216" y="674" text-anchor="end" fill="#4B5563" font-family="Microsoft YaHei" font-size="12">{{PAGE_NUM}}</text>
</svg>
