<?xml version="1.0" encoding="UTF-8"?>
<svg width="1280" height="720" xmlns="http://www.w3.org/2000/svg" viewBox="0 0 1280 720">
  <rect x="0" y="0" width="1280" height="720" fill="#FFFFFF"/>
  <rect x="0" y="0" width="1280" height="5" fill="#4295B6"/>
  <text x="64" y="45" fill="#4B5563" font-family="Microsoft YaHei" font-size="13">17 / OPPORTUNITY MANAGEMENT</text>
  <image href="images/huixin_logo_light.png" x="1030" y="18" width="170" height="40" preserveAspectRatio="xMidYMid meet"/>
  <text x="64" y="108" fill="#0B2F3A" font-family="Microsoft YaHei" font-size="34" font-weight="700">{{PAGE_TITLE}}</text>
  <text x="64" y="146" fill="#4295B6" font-family="Microsoft YaHei" font-size="18" font-weight="700">{{KEY_MESSAGE}}</text>

  <g id="opportunity-table">
    <rect x="64" y="174" width="1152" height="386" fill="#FFFFFF" stroke="#D2D3D4"/>
    <rect x="64" y="174" width="1152" height="40" fill="#4295B6"/>
    <text x="82" y="201" fill="#FFFFFF" font-family="Microsoft YaHei" font-size="13" font-weight="700">序号</text>
    <text x="136" y="201" fill="#FFFFFF" font-family="Microsoft YaHei" font-size="13" font-weight="700">客户名称</text>
    <text x="286" y="201" fill="#FFFFFF" font-family="Microsoft YaHei" font-size="13" font-weight="700">商机号</text>
    <text x="386" y="201" fill="#FFFFFF" font-family="Microsoft YaHei" font-size="13" font-weight="700">业务线</text>
    <text x="506" y="201" fill="#FFFFFF" font-family="Microsoft YaHei" font-size="13" font-weight="700">销售阶段</text>
    <text x="640" y="201" fill="#FFFFFF" font-family="Microsoft YaHei" font-size="13" font-weight="700">需求场景</text>
    <text x="838" y="201" fill="#FFFFFF" font-family="Microsoft YaHei" font-size="13" font-weight="700">金额</text>
    <text x="920" y="201" fill="#FFFFFF" font-family="Microsoft YaHei" font-size="13" font-weight="700">最新进展</text>
    <line x1="120" y1="174" x2="120" y2="560" stroke="#FFFFFF"/>
    <line x1="270" y1="174" x2="270" y2="560" stroke="#FFFFFF"/>
    <line x1="370" y1="174" x2="370" y2="560" stroke="#FFFFFF"/>
    <line x1="492" y1="174" x2="492" y2="560" stroke="#FFFFFF"/>
    <line x1="626" y1="174" x2="626" y2="560" stroke="#FFFFFF"/>
    <line x1="822" y1="174" x2="822" y2="560" stroke="#FFFFFF"/>
    <line x1="904" y1="174" x2="904" y2="560" stroke="#FFFFFF"/>
    <rect x="64" y="214" width="1152" height="46" fill="#F3F7FA"/>
    <rect x="64" y="306" width="1152" height="46" fill="#F3F7FA"/>
    <rect x="64" y="398" width="1152" height="46" fill="#F3F7FA"/>
    <rect x="64" y="490" width="1152" height="46" fill="#F3F7FA"/>
    <line x1="64" y1="260" x2="1216" y2="260" stroke="#D2D3D4"/>
    <line x1="64" y1="306" x2="1216" y2="306" stroke="#D2D3D4"/>
    <line x1="64" y1="352" x2="1216" y2="352" stroke="#D2D3D4"/>
    <line x1="64" y1="398" x2="1216" y2="398" stroke="#D2D3D4"/>
    <line x1="64" y1="444" x2="1216" y2="444" stroke="#D2D3D4"/>
    <line x1="64" y1="490" x2="1216" y2="490" stroke="#D2D3D4"/>
    <line x1="64" y1="536" x2="1216" y2="536" stroke="#D2D3D4"/>
    <text x="88" y="243" text-anchor="middle" fill="#0B2F3A" font-family="Microsoft YaHei" font-size="13">1</text>
    <text x="136" y="243" fill="#0B2F3A" font-family="Microsoft YaHei" font-size="13">{{CUSTOMER_1}}</text>
    <text x="286" y="243" fill="#4B5563" font-family="Microsoft YaHei" font-size="13">{{OPP_ID_1}}</text>
    <text x="386" y="243" fill="#4B5563" font-family="Microsoft YaHei" font-size="13">{{BU_1}}</text>
    <text x="506" y="243" fill="#0B2F3A" font-family="Microsoft YaHei" font-size="13" font-weight="700">{{STAGE_1}}</text>
    <text x="640" y="243" fill="#4B5563" font-family="Microsoft YaHei" font-size="13">{{SCENE_1}}</text>
    <text x="838" y="243" fill="#0B2F3A" font-family="Microsoft YaHei" font-size="13">{{AMOUNT_1}}</text>
    <text x="920" y="243" fill="#4B5563" font-family="Microsoft YaHei" font-size="13">{{PROGRESS_1}}</text>
    <text x="88" y="289" text-anchor="middle" fill="#0B2F3A" font-family="Microsoft YaHei" font-size="13">2</text>
    <text x="136" y="289" fill="#0B2F3A" font-family="Microsoft YaHei" font-size="13">{{CUSTOMER_2}}</text>
    <text x="286" y="289" fill="#4B5563" font-family="Microsoft YaHei" font-size="13">{{OPP_ID_2}}</text>
    <text x="386" y="289" fill="#4B5563" font-family="Microsoft YaHei" font-size="13">{{BU_2}}</text>
    <text x="506" y="289" fill="#0B2F3A" font-family="Microsoft YaHei" font-size="13" font-weight="700">{{STAGE_2}}</text>
    <text x="640" y="289" fill="#4B5563" font-family="Microsoft YaHei" font-size="13">{{SCENE_2}}</text>
    <text x="838" y="289" fill="#0B2F3A" font-family="Microsoft YaHei" font-size="13">{{AMOUNT_2}}</text>
    <text x="920" y="289" fill="#4B5563" font-family="Microsoft YaHei" font-size="13">{{PROGRESS_2}}</text>
    <text x="88" y="335" text-anchor="middle" fill="#0B2F3A" font-family="Microsoft YaHei" font-size="13">3</text>
    <text x="136" y="335" fill="#0B2F3A" font-family="Microsoft YaHei" font-size="13">{{CUSTOMER_3}}</text>
    <text x="286" y="335" fill="#4B5563" font-family="Microsoft YaHei" font-size="13">{{OPP_ID_3}}</text>
    <text x="386" y="335" fill="#4B5563" font-family="Microsoft YaHei" font-size="13">{{BU_3}}</text>
    <text x="506" y="335" fill="#0B2F3A" font-family="Microsoft YaHei" font-size="13" font-weight="700">{{STAGE_3}}</text>
    <text x="640" y="335" fill="#4B5563" font-family="Microsoft YaHei" font-size="13">{{SCENE_3}}</text>
    <text x="838" y="335" fill="#0B2F3A" font-family="Microsoft YaHei" font-size="13">{{AMOUNT_3}}</text>
    <text x="920" y="335" fill="#4B5563" font-family="Microsoft YaHei" font-size="13">{{PROGRESS_3}}</text>
    <text x="88" y="381" text-anchor="middle" fill="#0B2F3A" font-family="Microsoft YaHei" font-size="13">4</text>
    <text x="136" y="381" fill="#0B2F3A" font-family="Microsoft YaHei" font-size="13">{{CUSTOMER_4}}</text>
    <text x="286" y="381" fill="#4B5563" font-family="Microsoft YaHei" font-size="13">{{OPP_ID_4}}</text>
    <text x="386" y="381" fill="#4B5563" font-family="Microsoft YaHei" font-size="13">{{BU_4}}</text>
    <text x="506" y="381" fill="#0B2F3A" font-family="Microsoft YaHei" font-size="13" font-weight="700">{{STAGE_4}}</text>
    <text x="640" y="381" fill="#4B5563" font-family="Microsoft YaHei" font-size="13">{{SCENE_4}}</text>
    <text x="838" y="381" fill="#0B2F3A" font-family="Microsoft YaHei" font-size="13">{{AMOUNT_4}}</text>
    <text x="920" y="381" fill="#4B5563" font-family="Microsoft YaHei" font-size="13">{{PROGRESS_4}}</text>
  </g>

  <g id="bottom-actions">
    <rect x="64" y="588" width="1152" height="48" rx="4" fill="#0B2F3A"/>
    <text x="92" y="619" fill="#FFFFFF" font-family="Microsoft YaHei" font-size="16">管理要求：{{MANAGEMENT_REQUIREMENT}}</text>
    <rect x="942" y="595" width="118" height="34" rx="2" fill="#4295B6"/>
    <text x="973" y="618" fill="#FFFFFF" font-family="Microsoft YaHei" font-size="14" font-weight="700">{{OWNER}}</text>
    <rect x="1076" y="595" width="114" height="34" rx="2" fill="#B0D776"/>
    <text x="1105" y="618" fill="#0B2F3A" font-family="Microsoft YaHei" font-size="14" font-weight="700">{{DEADLINE}}</text>
  </g>

  <text x="64" y="674" fill="#4B5563" font-family="Microsoft YaHei" font-size="11">Huixin Management Report Template</text>
  <text x="1216" y="674" text-anchor="end" fill="#4B5563" font-family="Microsoft YaHei" font-size="12">{{PAGE_NUM}}</text>
</svg>
