<?xml version="1.0" encoding="UTF-8"?>
<svg width="1280" height="720" xmlns="http://www.w3.org/2000/svg" viewBox="0 0 1280 720">
  <rect x="0" y="0" width="1280" height="720" fill="#FFFFFF"/>
  <rect x="0" y="0" width="1280" height="5" fill="#4295B6"/>
  <text x="64" y="45" fill="#4B5563" font-family="Microsoft YaHei" font-size="13">23 / OPPORTUNITY PIPELINE STATS</text>
  <image href="images/huixin_logo_light.png" x="1030" y="18" width="170" height="40" preserveAspectRatio="xMidYMid meet"/>
  <text x="64" y="108" fill="#0B2F3A" font-family="Microsoft YaHei" font-size="34" font-weight="700">{{PAGE_TITLE}}</text>
  <text x="64" y="146" fill="#4295B6" font-family="Microsoft YaHei" font-size="18" font-weight="700">{{KEY_MESSAGE}}</text>

  <g id="pipeline-stage-bars">
    <rect x="64" y="178" width="536" height="286" rx="6" fill="#FFFFFF" stroke="#D2D3D4"/>
    <text x="92" y="214" fill="#0B2F3A" font-family="Microsoft YaHei" font-size="21" font-weight="700">商机阶段统计</text>
    <text x="92" y="260" fill="#4B5563" font-family="Microsoft YaHei" font-size="13">{{STAGE_1}}</text>
    <rect x="194" y="244" width="340" height="22" fill="#F3F7FA"/>
    <rect x="194" y="244" width="300" height="22" fill="#4295B6"/>
    <text x="548" y="260" text-anchor="end" fill="#0B2F3A" font-family="Microsoft YaHei" font-size="13">{{STAGE_1_AMOUNT}}</text>
    <text x="92" y="312" fill="#4B5563" font-family="Microsoft YaHei" font-size="13">{{STAGE_2}}</text>
    <rect x="194" y="296" width="340" height="22" fill="#F3F7FA"/>
    <rect x="194" y="296" width="250" height="22" fill="#4295B6"/>
    <text x="548" y="312" text-anchor="end" fill="#0B2F3A" font-family="Microsoft YaHei" font-size="13">{{STAGE_2_AMOUNT}}</text>
    <text x="92" y="364" fill="#4B5563" font-family="Microsoft YaHei" font-size="13">{{STAGE_3}}</text>
    <rect x="194" y="348" width="340" height="22" fill="#F3F7FA"/>
    <rect x="194" y="348" width="188" height="22" fill="#B0D776"/>
    <text x="548" y="364" text-anchor="end" fill="#0B2F3A" font-family="Microsoft YaHei" font-size="13">{{STAGE_3_AMOUNT}}</text>
    <text x="92" y="416" fill="#4B5563" font-family="Microsoft YaHei" font-size="13">{{STAGE_4}}</text>
    <rect x="194" y="400" width="340" height="22" fill="#F3F7FA"/>
    <rect x="194" y="400" width="124" height="22" fill="#D2D3D4"/>
    <text x="548" y="416" text-anchor="end" fill="#0B2F3A" font-family="Microsoft YaHei" font-size="13">{{STAGE_4_AMOUNT}}</text>
  </g>

  <g id="pipeline-kpis">
    <rect x="632" y="178" width="178" height="132" rx="4" fill="#F3F7FA" stroke="#D2D3D4"/>
    <text x="656" y="212" fill="#4B5563" font-family="Microsoft YaHei" font-size="13">商机总额</text>
    <text x="656" y="268" fill="#4295B6" font-family="Microsoft YaHei" font-size="34" font-weight="700">{{PIPELINE_AMOUNT}}</text>
    <rect x="832" y="178" width="178" height="132" rx="4" fill="#F3F7FA" stroke="#D2D3D4"/>
    <text x="856" y="212" fill="#4B5563" font-family="Microsoft YaHei" font-size="13">加权金额</text>
    <text x="856" y="268" fill="#B0D776" font-family="Microsoft YaHei" font-size="34" font-weight="700">{{WEIGHTED_AMOUNT}}</text>
    <rect x="1032" y="178" width="184" height="132" rx="4" fill="#0B2F3A"/>
    <text x="1056" y="212" fill="#D2D3D4" font-family="Microsoft YaHei" font-size="13">重点风险</text>
    <text x="1056" y="268" fill="#FFFFFF" font-family="Microsoft YaHei" font-size="30" font-weight="700">{{RISK_COUNT}}</text>
  </g>

  <g id="stage-table">
    <rect x="632" y="338" width="584" height="126" fill="#FFFFFF" stroke="#D2D3D4"/>
    <rect x="632" y="338" width="584" height="34" fill="#4295B6"/>
    <text x="654" y="361" fill="#FFFFFF" font-family="Microsoft YaHei" font-size="13" font-weight="700">阶段</text>
    <text x="790" y="361" fill="#FFFFFF" font-family="Microsoft YaHei" font-size="13" font-weight="700">数量</text>
    <text x="906" y="361" fill="#FFFFFF" font-family="Microsoft YaHei" font-size="13" font-weight="700">金额</text>
    <text x="1044" y="361" fill="#FFFFFF" font-family="Microsoft YaHei" font-size="13" font-weight="700">转化动作</text>
    <rect x="632" y="372" width="584" height="30" fill="#F3F7FA"/>
    <rect x="632" y="432" width="584" height="30" fill="#F3F7FA"/>
    <text x="654" y="392" fill="#0B2F3A" font-family="Microsoft YaHei" font-size="13">{{STAGE_1}}</text>
    <text x="790" y="392" fill="#4B5563" font-family="Microsoft YaHei" font-size="13">{{STAGE_1_COUNT}}</text>
    <text x="906" y="392" fill="#4B5563" font-family="Microsoft YaHei" font-size="13">{{STAGE_1_AMOUNT}}</text>
    <text x="1044" y="392" fill="#4B5563" font-family="Microsoft YaHei" font-size="13">{{STAGE_1_ACTION}}</text>
    <text x="654" y="422" fill="#0B2F3A" font-family="Microsoft YaHei" font-size="13">{{STAGE_2}}</text>
    <text x="790" y="422" fill="#4B5563" font-family="Microsoft YaHei" font-size="13">{{STAGE_2_COUNT}}</text>
    <text x="906" y="422" fill="#4B5563" font-family="Microsoft YaHei" font-size="13">{{STAGE_2_AMOUNT}}</text>
    <text x="1044" y="422" fill="#4B5563" font-family="Microsoft YaHei" font-size="13">{{STAGE_2_ACTION}}</text>
    <text x="654" y="452" fill="#0B2F3A" font-family="Microsoft YaHei" font-size="13">{{STAGE_3}}</text>
    <text x="790" y="452" fill="#4B5563" font-family="Microsoft YaHei" font-size="13">{{STAGE_3_COUNT}}</text>
    <text x="906" y="452" fill="#4B5563" font-family="Microsoft YaHei" font-size="13">{{STAGE_3_AMOUNT}}</text>
    <text x="1044" y="452" fill="#4B5563" font-family="Microsoft YaHei" font-size="13">{{STAGE_3_ACTION}}</text>
  </g>

  <g id="key-opportunities">
    <rect x="64" y="494" width="1152" height="104" fill="#FFFFFF" stroke="#D2D3D4"/>
    <rect x="64" y="494" width="1152" height="34" fill="#0B2F3A"/>
    <text x="88" y="517" fill="#FFFFFF" font-family="Microsoft YaHei" font-size="13" font-weight="700">重点客户</text>
    <text x="264" y="517" fill="#FFFFFF" font-family="Microsoft YaHei" font-size="13" font-weight="700">商机金额</text>
    <text x="398" y="517" fill="#FFFFFF" font-family="Microsoft YaHei" font-size="13" font-weight="700">概率</text>
    <text x="514" y="517" fill="#FFFFFF" font-family="Microsoft YaHei" font-size="13" font-weight="700">预计签约</text>
    <text x="676" y="517" fill="#FFFFFF" font-family="Microsoft YaHei" font-size="13" font-weight="700">最新进展</text>
    <text x="1036" y="517" fill="#FFFFFF" font-family="Microsoft YaHei" font-size="13" font-weight="700">责任人</text>
    <rect x="64" y="528" width="1152" height="34" fill="#F3F7FA"/>
    <text x="88" y="550" fill="#0B2F3A" font-family="Microsoft YaHei" font-size="13">{{CUSTOMER_1}}</text>
    <text x="264" y="550" fill="#4B5563" font-family="Microsoft YaHei" font-size="13">{{AMOUNT_1}}</text>
    <text x="398" y="550" fill="#4295B6" font-family="Microsoft YaHei" font-size="13" font-weight="700">{{PROB_1}}</text>
    <text x="514" y="550" fill="#4B5563" font-family="Microsoft YaHei" font-size="13">{{CLOSE_1}}</text>
    <text x="676" y="550" fill="#4B5563" font-family="Microsoft YaHei" font-size="13">{{PROGRESS_1}}</text>
    <text x="1036" y="550" fill="#0B2F3A" font-family="Microsoft YaHei" font-size="13">{{OWNER_1}}</text>
    <text x="88" y="584" fill="#0B2F3A" font-family="Microsoft YaHei" font-size="13">{{CUSTOMER_2}}</text>
    <text x="264" y="584" fill="#4B5563" font-family="Microsoft YaHei" font-size="13">{{AMOUNT_2}}</text>
    <text x="398" y="584" fill="#4295B6" font-family="Microsoft YaHei" font-size="13" font-weight="700">{{PROB_2}}</text>
    <text x="514" y="584" fill="#4B5563" font-family="Microsoft YaHei" font-size="13">{{CLOSE_2}}</text>
    <text x="676" y="584" fill="#4B5563" font-family="Microsoft YaHei" font-size="13">{{PROGRESS_2}}</text>
    <text x="1036" y="584" fill="#0B2F3A" font-family="Microsoft YaHei" font-size="13">{{OWNER_2}}</text>
  </g>

  <text x="64" y="674" fill="#4B5563" font-family="Microsoft YaHei" font-size="11">Huixin Management Report Template</text>
  <text x="1216" y="674" text-anchor="end" fill="#4B5563" font-family="Microsoft YaHei" font-size="12">{{PAGE_NUM}}</text>
</svg>
